<svg width="384" height="389" viewBox="0 0 384 389" fill="none" xmlns="http://www.w3.org/2000/svg">
<rect width="384" height="389" fill="white"/>
<rect x="262.5" y="1.5" width="120" height="56" stroke="black" stroke-width="3"/>
<path d="M294.452 35C294.407 34.9089 294.368 34.804 294.336 34.6855C294.304 34.5671 294.277 34.4417 294.254 34.3096C294.149 34.4235 294.028 34.5306 293.892 34.6309C293.755 34.7311 293.602 34.82 293.434 34.8975C293.27 34.9704 293.087 35.0273 292.887 35.0684C292.686 35.1139 292.47 35.1367 292.237 35.1367C291.859 35.1367 291.51 35.082 291.191 34.9727C290.877 34.8633 290.606 34.7106 290.378 34.5146C290.15 34.3187 289.972 34.0863 289.845 33.8174C289.717 33.5439 289.653 33.2477 289.653 32.9287C289.653 32.1494 289.943 31.5479 290.521 31.124C291.105 30.6956 291.973 30.4814 293.126 30.4814H294.186V30.0439C294.186 29.6885 294.069 29.4082 293.837 29.2031C293.604 28.9935 293.27 28.8887 292.832 28.8887C292.445 28.8887 292.162 28.973 291.984 29.1416C291.807 29.3057 291.718 29.5267 291.718 29.8047H289.817C289.817 29.4902 289.886 29.1917 290.022 28.9092C290.164 28.6266 290.367 28.3783 290.631 28.1641C290.9 27.9499 291.226 27.7812 291.608 27.6582C291.996 27.5306 292.438 27.4668 292.935 27.4668C293.381 27.4668 293.796 27.5215 294.179 27.6309C294.566 27.7402 294.901 27.902 295.184 28.1162C295.466 28.3304 295.687 28.6016 295.847 28.9297C296.006 29.2533 296.086 29.6292 296.086 30.0576V33.2295C296.086 33.626 296.111 33.9541 296.161 34.2139C296.211 34.4736 296.284 34.6969 296.38 34.8838V35H294.452ZM292.641 33.667C292.832 33.667 293.01 33.6442 293.174 33.5986C293.338 33.5531 293.486 33.4938 293.618 33.4209C293.75 33.348 293.864 33.266 293.96 33.1748C294.056 33.0791 294.131 32.9834 294.186 32.8877V31.6162H293.215C292.919 31.6162 292.666 31.6458 292.456 31.7051C292.246 31.7598 292.076 31.8395 291.943 31.9443C291.811 32.0446 291.713 32.1676 291.649 32.3135C291.586 32.4548 291.554 32.6097 291.554 32.7783C291.554 33.0335 291.643 33.2454 291.82 33.4141C292.003 33.5827 292.276 33.667 292.641 33.667ZM303.011 32.9697C303.011 32.8558 302.983 32.7555 302.929 32.6689C302.879 32.5824 302.785 32.5026 302.648 32.4297C302.516 32.3522 302.339 32.2816 302.115 32.2178C301.892 32.154 301.609 32.0902 301.268 32.0264C300.835 31.9398 300.438 31.8327 300.078 31.7051C299.723 31.5729 299.417 31.4157 299.162 31.2334C298.907 31.0465 298.706 30.8324 298.561 30.5908C298.419 30.3493 298.349 30.0713 298.349 29.7568C298.349 29.4515 298.422 29.1598 298.567 28.8818C298.713 28.6038 298.923 28.36 299.196 28.1504C299.47 27.9408 299.802 27.7744 300.194 27.6514C300.586 27.5283 301.028 27.4668 301.521 27.4668C302.035 27.4668 302.498 27.5283 302.908 27.6514C303.318 27.7699 303.665 27.9362 303.947 28.1504C304.234 28.36 304.453 28.6107 304.604 28.9023C304.754 29.194 304.829 29.5107 304.829 29.8525H302.929C302.929 29.5654 302.812 29.3262 302.58 29.1348C302.348 28.9388 301.994 28.8408 301.521 28.8408C301.078 28.8408 300.743 28.9206 300.516 29.0801C300.292 29.2396 300.181 29.4355 300.181 29.668C300.181 29.7773 300.203 29.8799 300.249 29.9756C300.295 30.0667 300.374 30.151 300.488 30.2285C300.607 30.3014 300.766 30.3698 300.967 30.4336C301.167 30.4928 301.423 30.5452 301.732 30.5908C302.179 30.6637 302.594 30.7572 302.977 30.8711C303.359 30.985 303.69 31.1331 303.968 31.3154C304.246 31.4932 304.462 31.7119 304.617 31.9717C304.777 32.2269 304.856 32.5322 304.856 32.8877C304.856 33.2158 304.777 33.5189 304.617 33.7969C304.462 34.0703 304.239 34.3073 303.947 34.5078C303.66 34.7083 303.312 34.8656 302.901 34.9795C302.491 35.0889 302.033 35.1436 301.527 35.1436C300.971 35.1436 300.479 35.0706 300.051 34.9248C299.627 34.779 299.271 34.5898 298.984 34.3574C298.697 34.1204 298.479 33.8538 298.328 33.5576C298.182 33.2568 298.109 32.9561 298.109 32.6553H299.921C299.935 32.8558 299.989 33.029 300.085 33.1748C300.181 33.3161 300.304 33.4323 300.454 33.5234C300.604 33.61 300.775 33.6738 300.967 33.7148C301.163 33.7559 301.363 33.7764 301.568 33.7764C302.038 33.7764 302.396 33.7012 302.642 33.5508C302.888 33.4004 303.011 33.2067 303.011 32.9697ZM311.419 32.9697C311.419 32.8558 311.392 32.7555 311.337 32.6689C311.287 32.5824 311.193 32.5026 311.057 32.4297C310.924 32.3522 310.747 32.2816 310.523 32.2178C310.3 32.154 310.018 32.0902 309.676 32.0264C309.243 31.9398 308.846 31.8327 308.486 31.7051C308.131 31.5729 307.826 31.4157 307.57 31.2334C307.315 31.0465 307.115 30.8324 306.969 30.5908C306.827 30.3493 306.757 30.0713 306.757 29.7568C306.757 29.4515 306.83 29.1598 306.976 28.8818C307.121 28.6038 307.331 28.36 307.604 28.1504C307.878 27.9408 308.211 27.7744 308.603 27.6514C308.994 27.5283 309.437 27.4668 309.929 27.4668C310.444 27.4668 310.906 27.5283 311.316 27.6514C311.727 27.7699 312.073 27.9362 312.355 28.1504C312.643 28.36 312.861 28.6107 313.012 28.9023C313.162 29.194 313.237 29.5107 313.237 29.8525H311.337C311.337 29.5654 311.221 29.3262 310.988 29.1348C310.756 28.9388 310.403 28.8408 309.929 28.8408C309.487 28.8408 309.152 28.9206 308.924 29.0801C308.701 29.2396 308.589 29.4355 308.589 29.668C308.589 29.7773 308.612 29.8799 308.657 29.9756C308.703 30.0667 308.783 30.151 308.896 30.2285C309.015 30.3014 309.174 30.3698 309.375 30.4336C309.576 30.4928 309.831 30.5452 310.141 30.5908C310.587 30.6637 311.002 30.7572 311.385 30.8711C311.768 30.985 312.098 31.1331 312.376 31.3154C312.654 31.4932 312.87 31.7119 313.025 31.9717C313.185 32.2269 313.265 32.5322 313.265 32.8877C313.265 33.2158 313.185 33.5189 313.025 33.7969C312.87 34.0703 312.647 34.3073 312.355 34.5078C312.068 34.7083 311.72 34.8656 311.31 34.9795C310.899 35.0889 310.441 35.1436 309.936 35.1436C309.38 35.1436 308.887 35.0706 308.459 34.9248C308.035 34.779 307.68 34.5898 307.393 34.3574C307.105 34.1204 306.887 33.8538 306.736 33.5576C306.59 33.2568 306.518 32.9561 306.518 32.6553H308.329C308.343 32.8558 308.397 33.029 308.493 33.1748C308.589 33.3161 308.712 33.4323 308.862 33.5234C309.013 33.61 309.184 33.6738 309.375 33.7148C309.571 33.7559 309.771 33.7764 309.977 33.7764C310.446 33.7764 310.804 33.7012 311.05 33.5508C311.296 33.4004 311.419 33.2067 311.419 32.9697ZM315.562 27.6035H319.588V33.4551H321.591V35H315.562V33.4551H317.667V29.1553H315.562V27.6035ZM317.53 25.71C317.53 25.5641 317.555 25.4297 317.605 25.3066C317.66 25.179 317.735 25.0719 317.831 24.9854C317.927 24.8942 318.041 24.8236 318.173 24.7734C318.31 24.7233 318.46 24.6982 318.624 24.6982C318.961 24.6982 319.228 24.7939 319.424 24.9854C319.624 25.1722 319.725 25.4137 319.725 25.71C319.725 26.0062 319.624 26.25 319.424 26.4414C319.228 26.6283 318.961 26.7217 318.624 26.7217C318.46 26.7217 318.31 26.6966 318.173 26.6465C318.041 26.5964 317.927 26.528 317.831 26.4414C317.735 26.3503 317.66 26.2432 317.605 26.1201C317.555 25.9925 317.53 25.8558 317.53 25.71ZM323.272 31.2471C323.272 30.6865 323.341 30.1738 323.478 29.709C323.619 29.2441 323.819 28.8454 324.079 28.5127C324.339 28.18 324.653 27.9225 325.022 27.7402C325.392 27.5579 325.809 27.4668 326.273 27.4668C326.706 27.4668 327.078 27.5397 327.388 27.6855C327.698 27.8314 327.962 28.0387 328.181 28.3076L328.256 27.6035H329.985V34.7607C329.985 35.262 329.899 35.7087 329.726 36.1006C329.557 36.4925 329.318 36.8229 329.008 37.0918C328.702 37.3607 328.333 37.5635 327.9 37.7002C327.472 37.8415 326.998 37.9121 326.479 37.9121C326.255 37.9121 326.016 37.8893 325.761 37.8438C325.506 37.7982 325.253 37.7275 325.002 37.6318C324.751 37.5361 324.514 37.4131 324.291 37.2627C324.068 37.1169 323.876 36.9414 323.717 36.7363L324.571 35.5811C324.813 35.8545 325.086 36.0618 325.392 36.2031C325.697 36.349 326.027 36.4219 326.383 36.4219C326.916 36.4219 327.331 36.2783 327.627 35.9912C327.928 35.7087 328.078 35.3053 328.078 34.7812V34.3574C327.855 34.6035 327.593 34.7949 327.292 34.9316C326.996 35.0684 326.652 35.1367 326.26 35.1367C325.799 35.1367 325.385 35.0433 325.016 34.8564C324.651 34.665 324.339 34.403 324.079 34.0703C323.819 33.7376 323.619 33.3434 323.478 32.8877C323.341 32.4274 323.272 31.9284 323.272 31.3906V31.2471ZM325.18 31.3906C325.18 31.7005 325.209 31.9899 325.269 32.2588C325.332 32.5231 325.428 32.7555 325.556 32.9561C325.683 33.152 325.845 33.307 326.041 33.4209C326.237 33.5348 326.469 33.5918 326.738 33.5918C327.071 33.5918 327.344 33.528 327.559 33.4004C327.777 33.2728 327.951 33.0951 328.078 32.8672V29.7363C327.951 29.5039 327.777 29.3262 327.559 29.2031C327.344 29.0755 327.076 29.0117 326.752 29.0117C326.483 29.0117 326.251 29.071 326.055 29.1895C325.859 29.3034 325.695 29.4629 325.562 29.668C325.435 29.8685 325.339 30.1055 325.275 30.3789C325.212 30.6478 325.18 30.9372 325.18 31.2471V31.3906ZM333.595 27.6035L333.711 28.6289C333.975 28.2598 334.297 27.9749 334.675 27.7744C335.053 27.5693 335.472 27.4668 335.933 27.4668C336.306 27.4668 336.648 27.5215 336.958 27.6309C337.268 27.7402 337.535 27.9157 337.758 28.1572C337.986 28.3942 338.161 28.7018 338.284 29.0801C338.412 29.4538 338.476 29.9095 338.476 30.4473V35H336.575V30.4746C336.575 30.1829 336.541 29.9437 336.473 29.7568C336.409 29.5654 336.315 29.415 336.192 29.3057C336.069 29.1963 335.921 29.1211 335.748 29.0801C335.575 29.0345 335.379 29.0117 335.16 29.0117C334.837 29.0117 334.561 29.0778 334.333 29.21C334.105 29.3376 333.921 29.5153 333.779 29.7432V35H331.872V27.6035H333.595ZM343.869 35.1367C343.299 35.1367 342.782 35.0433 342.317 34.8564C341.853 34.6696 341.454 34.4167 341.121 34.0977C340.788 33.7741 340.531 33.3958 340.349 32.9629C340.171 32.5254 340.082 32.0583 340.082 31.5615V31.2881C340.082 30.723 340.171 30.208 340.349 29.7432C340.526 29.2738 340.775 28.8704 341.094 28.5332C341.413 28.196 341.791 27.9339 342.229 27.7471C342.666 27.5602 343.142 27.4668 343.657 27.4668C344.19 27.4668 344.664 27.5557 345.079 27.7334C345.498 27.9066 345.852 28.1527 346.139 28.4717C346.43 28.7907 346.651 29.1758 346.802 29.627C346.952 30.0736 347.027 30.568 347.027 31.1104V31.917H342.01C342.046 32.1676 342.119 32.3978 342.229 32.6074C342.342 32.8125 342.486 32.9902 342.659 33.1406C342.832 33.291 343.031 33.4072 343.254 33.4893C343.477 33.5713 343.721 33.6123 343.985 33.6123C344.172 33.6123 344.357 33.5941 344.539 33.5576C344.726 33.5212 344.904 33.4688 345.072 33.4004C345.241 33.3275 345.398 33.2386 345.544 33.1338C345.69 33.029 345.817 32.9059 345.927 32.7646L346.877 33.79C346.758 33.9587 346.604 34.125 346.412 34.2891C346.225 34.4486 346.002 34.5921 345.742 34.7197C345.487 34.8428 345.202 34.943 344.888 35.0205C344.573 35.098 344.234 35.1367 343.869 35.1367ZM343.644 29.0049C343.429 29.0049 343.233 29.0436 343.056 29.1211C342.878 29.194 342.721 29.3011 342.584 29.4424C342.452 29.5837 342.34 29.7523 342.249 29.9482C342.158 30.1442 342.09 30.363 342.044 30.6045H345.161V30.4541C345.152 30.2536 345.113 30.0645 345.045 29.8867C344.977 29.709 344.879 29.5563 344.751 29.4287C344.623 29.2965 344.466 29.194 344.279 29.1211C344.097 29.0436 343.885 29.0049 343.644 29.0049ZM348.49 31.2471C348.49 30.6865 348.554 30.1738 348.682 29.709C348.814 29.2441 349.005 28.8454 349.256 28.5127C349.507 28.18 349.81 27.9225 350.165 27.7402C350.525 27.5579 350.935 27.4668 351.396 27.4668C351.783 27.4668 352.122 27.5374 352.414 27.6787C352.71 27.8154 352.972 28.0114 353.2 28.2666V24.5H355.107V35H353.392L353.296 34.2275C353.063 34.5146 352.79 34.738 352.476 34.8975C352.161 35.057 351.797 35.1367 351.382 35.1367C350.931 35.1367 350.525 35.0433 350.165 34.8564C349.81 34.665 349.507 34.403 349.256 34.0703C349.01 33.7376 348.821 33.3434 348.688 32.8877C348.556 32.4274 348.49 31.9284 348.49 31.3906V31.2471ZM350.391 31.3906C350.391 31.7005 350.416 31.9899 350.466 32.2588C350.521 32.5231 350.607 32.7555 350.726 32.9561C350.844 33.152 350.997 33.307 351.184 33.4209C351.37 33.5348 351.598 33.5918 351.867 33.5918C352.195 33.5918 352.466 33.5212 352.681 33.3799C352.899 33.2386 353.073 33.0449 353.2 32.7988V29.8047C353.073 29.554 352.902 29.3604 352.688 29.2236C352.473 29.0824 352.204 29.0117 351.881 29.0117C351.612 29.0117 351.382 29.071 351.19 29.1895C351.004 29.3034 350.851 29.4629 350.732 29.668C350.614 29.8685 350.527 30.1055 350.473 30.3789C350.418 30.6478 350.391 30.9372 350.391 31.2471V31.3906Z" fill="black"/>
<g opacity="0.45">
<rect x="1.5" y="331.5" width="120" height="56" fill="black" stroke="black" stroke-width="3"/>
<path d="M36.9497 358.383H34.7721C34.6892 357.823 34.4506 357.384 34.0562 357.065C33.6618 356.744 33.1696 356.583 32.5796 356.583C31.7908 356.583 31.1578 356.873 30.6805 357.453C30.2065 358.03 29.9695 358.848 29.9695 359.909C29.9695 360.996 30.2082 361.823 30.6855 362.39C31.166 362.953 31.7925 363.235 32.5647 363.235C33.1381 363.235 33.6237 363.086 34.0214 362.788C34.4191 362.486 34.6694 362.063 34.7721 361.52L36.9497 361.53C36.8734 362.153 36.6514 362.74 36.2835 363.29C35.9156 363.84 35.4151 364.286 34.782 364.627C34.1523 364.969 33.4016 365.139 32.5299 365.139C31.6218 365.139 30.8097 364.934 30.0938 364.523C29.3812 364.112 28.8178 363.517 28.4035 362.738C27.9925 361.959 27.787 361.016 27.787 359.909C27.787 358.799 27.9958 357.854 28.4134 357.075C28.8311 356.296 29.3978 355.703 30.1137 355.295C30.8296 354.884 31.635 354.679 32.5299 354.679C33.3154 354.679 34.0231 354.825 34.6528 355.116C35.2858 355.405 35.8029 355.826 36.2039 356.379C36.6083 356.929 36.8569 357.597 36.9497 358.383ZM40.6311 365.144C39.902 365.144 39.2971 364.954 38.8165 364.572C38.3359 364.191 38.0956 363.623 38.0956 362.867C38.0956 362.297 38.2298 361.85 38.4983 361.525C38.7668 361.2 39.1181 360.963 39.5523 360.814C39.9898 360.661 40.4604 360.562 40.9642 360.516C41.6271 360.449 42.1011 360.38 42.3861 360.307C42.6711 360.234 42.8137 360.075 42.8137 359.83V359.8C42.8137 359.485 42.7142 359.241 42.5154 359.069C42.3198 358.897 42.0414 358.81 41.6801 358.81C41.299 358.81 40.9957 358.893 40.7703 359.059C40.545 359.225 40.3958 359.435 40.3229 359.69L38.3641 359.531C38.5099 358.835 38.8712 358.283 39.4479 357.876C40.0279 357.468 40.7753 357.264 41.6901 357.264C42.2568 357.264 42.7871 357.354 43.281 357.533C43.7748 357.712 44.1726 357.992 44.4742 358.373C44.7791 358.751 44.9316 359.243 44.9316 359.849V365H42.923V363.941H42.8634C42.6778 364.296 42.3994 364.586 42.0281 364.811C41.6602 365.033 41.1946 365.144 40.6311 365.144ZM41.2377 363.683C41.7017 363.683 42.0828 363.548 42.3811 363.28C42.6794 363.008 42.8286 362.672 42.8286 362.271V361.46C42.7457 361.517 42.6164 361.566 42.4408 361.609C42.2684 361.652 42.0828 361.691 41.884 361.724C41.6884 361.754 41.5128 361.78 41.357 361.803C40.9858 361.856 40.6858 361.961 40.4571 362.116C40.2317 362.272 40.1191 362.499 40.1191 362.798C40.1191 363.089 40.2235 363.31 40.4323 363.459C40.6444 363.608 40.9128 363.683 41.2377 363.683ZM48.6926 360.585V365H46.5747V357.364H48.5931V358.711H48.6826C48.855 358.267 49.1383 357.915 49.5328 357.657C49.9305 357.395 50.4127 357.264 50.9795 357.264C51.7749 357.264 52.413 357.521 52.8936 358.035C53.3741 358.545 53.6144 359.246 53.6144 360.138V365H51.4965V360.516C51.4999 360.048 51.3805 359.684 51.1386 359.422C50.8966 359.157 50.5635 359.024 50.1393 359.024C49.7117 359.024 49.3637 359.162 49.0953 359.437C48.8301 359.709 48.6959 360.091 48.6926 360.585ZM58.7339 365.149C57.9517 365.149 57.2789 364.983 56.7155 364.652C56.1553 364.317 55.7245 363.853 55.4229 363.26C55.1246 362.667 54.9754 361.984 54.9754 361.212C54.9754 360.429 55.1262 359.743 55.4278 359.153C55.7327 358.56 56.1653 358.098 56.7254 357.766C57.2855 357.432 57.9517 357.264 58.724 357.264C59.3902 357.264 59.9735 357.385 60.474 357.627C60.9778 357.869 61.3738 358.209 61.6622 358.646C61.9539 359.084 62.1146 359.598 62.1444 360.188H60.1459C60.0895 359.806 59.9404 359.5 59.6984 359.268C59.4598 359.032 59.1466 358.915 58.7588 358.915C58.2683 358.915 57.8738 359.112 57.5756 359.506C57.2773 359.901 57.1281 360.459 57.1281 361.182C57.1281 361.911 57.2756 362.476 57.5706 362.877C57.8689 363.275 58.2649 363.474 58.7588 363.474C59.1234 363.474 59.43 363.364 59.6785 363.146C59.9271 362.924 60.0829 362.609 60.1459 362.201H62.1444C62.1113 362.784 61.9522 363.298 61.6672 363.742C61.3854 364.186 60.996 364.533 60.4988 364.781C60.0017 365.027 59.4134 365.149 58.7339 365.149ZM66.9806 365.149C66.1984 365.149 65.5239 364.99 64.9571 364.672C64.3904 364.35 63.9545 363.896 63.6496 363.31C63.3447 362.72 63.1922 362.022 63.1922 361.217C63.1922 360.431 63.3447 359.742 63.6496 359.148C63.9545 358.555 64.3837 358.093 64.9372 357.761C65.4941 357.43 66.147 357.264 66.896 357.264C67.5689 357.264 68.1754 357.407 68.7156 357.692C69.2592 357.977 69.6901 358.408 70.0083 358.984C70.3264 359.558 70.4855 360.277 70.4855 361.142V361.724H65.2852V361.729C65.2852 362.299 65.441 362.748 65.7526 363.076C66.0641 363.404 66.4851 363.568 67.0154 363.568C67.37 363.568 67.6766 363.494 67.9351 363.344C68.1936 363.195 68.3759 362.975 68.482 362.683L70.4408 362.812C70.2916 363.522 69.9138 364.089 69.3073 364.513C68.7007 364.937 67.9252 365.149 66.9806 365.149ZM65.2852 360.411H68.4919C68.4886 359.957 68.3428 359.583 68.0544 359.288C67.7661 358.993 67.3915 358.845 66.9308 358.845C66.4602 358.845 66.0741 358.998 65.7725 359.303C65.4709 359.607 65.3084 359.977 65.2852 360.411ZM73.9855 354.818V365H71.8676V354.818H73.9855ZM77.8 354.818V365H75.6821V354.818H77.8ZM82.9767 365.149C82.1945 365.149 81.52 364.99 80.9532 364.672C80.3865 364.35 79.9506 363.896 79.6457 363.31C79.3408 362.72 79.1883 362.022 79.1883 361.217C79.1883 360.431 79.3408 359.742 79.6457 359.148C79.9506 358.555 80.3798 358.093 80.9333 357.761C81.4901 357.43 82.1431 357.264 82.8921 357.264C83.565 357.264 84.1715 357.407 84.7117 357.692C85.2553 357.977 85.6862 358.408 86.0044 358.984C86.3225 359.558 86.4816 360.277 86.4816 361.142V361.724H81.2813V361.729C81.2813 362.299 81.4371 362.748 81.7487 363.076C82.0602 363.404 82.4811 363.568 83.0115 363.568C83.3661 363.568 83.6727 363.494 83.9312 363.344C84.1897 363.195 84.372 362.975 84.4781 362.683L86.4369 362.812C86.2877 363.522 85.9099 364.089 85.3034 364.513C84.6968 364.937 83.9213 365.149 82.9767 365.149ZM81.2813 360.411H84.488C84.4847 359.957 84.3389 359.583 84.0505 359.288C83.7622 358.993 83.3876 358.845 82.9269 358.845C82.4563 358.845 82.0702 358.998 81.7686 359.303C81.4669 359.607 81.3045 359.977 81.2813 360.411ZM90.6776 365.124C90.0976 365.124 89.574 364.975 89.1066 364.677C88.6393 364.375 88.2681 363.933 87.993 363.349C87.7179 362.763 87.5803 362.044 87.5803 361.192C87.5803 360.317 87.7212 359.589 88.0029 359.009C88.288 358.426 88.6642 357.99 89.1315 357.702C89.6021 357.41 90.1159 357.264 90.6727 357.264C91.1002 357.264 91.4565 357.337 91.7416 357.483C92.0299 357.625 92.2619 357.803 92.4376 358.015C92.6166 358.227 92.7525 358.437 92.8453 358.646H92.9099V354.818H95.0228V365H92.9347V363.777H92.8453C92.7491 363.989 92.6099 364.2 92.4276 364.408C92.2454 364.614 92.01 364.785 91.7217 364.92C91.4366 365.056 91.0886 365.124 90.6776 365.124ZM91.3488 363.439C91.8592 363.439 92.2536 363.233 92.532 362.822C92.8138 362.408 92.9546 361.861 92.9546 361.182C92.9546 360.499 92.8154 359.957 92.537 359.556C92.2586 359.152 91.8625 358.95 91.3488 358.95C90.8251 358.95 90.4258 359.157 90.1507 359.571C89.8789 359.982 89.743 360.519 89.743 361.182C89.743 361.848 89.8805 362.392 90.1556 362.812C90.4307 363.23 90.8285 363.439 91.3488 363.439Z" fill="white"/>
</g>
<g opacity="0.45">
<rect x="156.5" y="331.5" width="120" height="56" fill="black" stroke="black" stroke-width="3"/>
<path d="M202.469 365V354.818H204.622V363.225H208.987V365H202.469ZM213.823 365.149C213.051 365.149 212.383 364.985 211.819 364.657C211.259 364.326 210.827 363.865 210.522 363.275C210.217 362.682 210.064 361.994 210.064 361.212C210.064 360.423 210.217 359.733 210.522 359.143C210.827 358.55 211.259 358.089 211.819 357.761C212.383 357.43 213.051 357.264 213.823 357.264C214.595 357.264 215.261 357.43 215.821 357.761C216.385 358.089 216.819 358.55 217.124 359.143C217.429 359.733 217.581 360.423 217.581 361.212C217.581 361.994 217.429 362.682 217.124 363.275C216.819 363.865 216.385 364.326 215.821 364.657C215.261 364.985 214.595 365.149 213.823 365.149ZM213.833 363.509C214.356 363.509 214.752 363.29 215.021 362.852C215.293 362.415 215.429 361.863 215.429 361.197C215.429 360.531 215.293 359.979 215.021 359.541C214.752 359.1 214.356 358.88 213.833 358.88C213.299 358.88 212.896 359.1 212.625 359.541C212.353 359.979 212.217 360.531 212.217 361.197C212.217 361.863 212.353 362.415 212.625 362.852C212.896 363.29 213.299 363.509 213.833 363.509ZM225.312 359.541L223.373 359.661C223.32 359.415 223.186 359.205 222.971 359.029C222.755 358.853 222.463 358.766 222.096 358.766C221.767 358.766 221.489 358.835 221.26 358.974C221.035 359.11 220.924 359.293 220.927 359.521C220.924 359.704 220.995 359.858 221.141 359.984C221.29 360.11 221.542 360.211 221.897 360.287L223.279 360.565C224.747 360.867 225.483 361.556 225.486 362.634C225.486 363.134 225.339 363.573 225.044 363.951C224.752 364.329 224.351 364.624 223.841 364.836C223.33 365.045 222.745 365.149 222.086 365.149C221.075 365.149 220.269 364.939 219.669 364.518C219.069 364.094 218.72 363.517 218.62 362.788L220.703 362.678C220.77 362.99 220.922 363.225 221.161 363.384C221.403 363.543 221.713 363.623 222.091 363.623C222.462 363.623 222.76 363.55 222.985 363.404C223.214 363.258 223.33 363.073 223.333 362.847C223.324 362.469 222.997 362.216 222.354 362.087L221.032 361.823C219.553 361.528 218.818 360.801 218.824 359.641C218.821 358.905 219.114 358.325 219.704 357.901C220.297 357.476 221.083 357.264 222.061 357.264C223.025 357.264 223.784 357.468 224.338 357.876C224.895 358.283 225.219 358.839 225.312 359.541ZM230.882 357.364V358.955H229.445V362.653C229.445 362.945 229.511 363.142 229.644 363.245C229.776 363.348 229.949 363.399 230.161 363.399C230.26 363.399 230.36 363.391 230.459 363.374C230.558 363.354 230.635 363.339 230.688 363.33L231.021 364.906C230.915 364.939 230.766 364.977 230.573 365.02C230.381 365.066 230.147 365.094 229.872 365.104C229.103 365.138 228.485 364.972 228.018 364.607C227.554 364.239 227.324 363.681 227.327 362.932V358.955H226.283V357.364H227.327V355.534H229.445V357.364H230.882Z" fill="white"/>
</g>
<rect x="1.5" y="166.5" width="120" height="56" fill="white" stroke="black" stroke-width="3"/>
<path d="M33.2912 200H29.6818V189.818H33.321C34.3452 189.818 35.2268 190.022 35.9659 190.43C36.7083 190.834 37.2784 191.416 37.6761 192.175C38.0739 192.934 38.2727 193.842 38.2727 194.899C38.2727 195.96 38.0722 196.871 37.6712 197.634C37.2734 198.396 36.7017 198.981 35.956 199.388C35.2135 199.796 34.3253 200 33.2912 200ZM31.8345 198.156H33.2017C34.1596 198.156 34.8854 197.897 35.3793 197.38C35.8764 196.863 36.125 196.036 36.125 194.899C36.125 193.769 35.8764 192.947 35.3793 192.433C34.8854 191.92 34.1612 191.663 33.2067 191.663H31.8345V198.156ZM43.3077 200.149C42.5255 200.149 41.851 199.99 41.2843 199.672C40.7175 199.35 40.2817 198.896 39.9767 198.31C39.6718 197.72 39.5194 197.022 39.5194 196.217C39.5194 195.431 39.6718 194.742 39.9767 194.148C40.2817 193.555 40.7109 193.093 41.2644 192.761C41.8212 192.43 42.4741 192.264 43.2232 192.264C43.896 192.264 44.5025 192.407 45.0428 192.692C45.5864 192.977 46.0172 193.408 46.3354 193.984C46.6536 194.558 46.8127 195.277 46.8127 196.142V196.724H41.6124V196.729C41.6124 197.299 41.7682 197.748 42.0797 198.076C42.3913 198.404 42.8122 198.568 43.3425 198.568C43.6971 198.568 44.0037 198.494 44.2623 198.344C44.5208 198.195 44.7031 197.975 44.8091 197.683L46.7679 197.812C46.6188 198.522 46.2409 199.089 45.6344 199.513C45.0279 199.937 44.2523 200.149 43.3077 200.149ZM41.6124 195.411H44.8191C44.8158 194.957 44.6699 194.583 44.3816 194.288C44.0932 193.993 43.7187 193.845 43.258 193.845C42.7873 193.845 42.4012 193.998 42.0996 194.303C41.798 194.607 41.6356 194.977 41.6124 195.411ZM50.3127 189.818V200H48.1948V189.818H50.3127ZM52.0092 200V192.364H54.1271V200H52.0092ZM53.0732 191.379C52.7616 191.379 52.4931 191.275 52.2678 191.066C52.0424 190.854 51.9297 190.6 51.9297 190.305C51.9297 190.01 52.0424 189.759 52.2678 189.55C52.4931 189.341 52.7616 189.237 53.0732 189.237C53.388 189.237 53.6581 189.341 53.8835 189.55C54.1089 189.759 54.2216 190.01 54.2216 190.305C54.2216 190.6 54.1089 190.854 53.8835 191.066C53.6581 191.275 53.388 191.379 53.0732 191.379ZM62.943 192.364L60.2733 200H57.8869L55.2172 192.364H57.4544L59.0403 197.827H59.1199L60.7008 192.364H62.943ZM67.2472 200.149C66.465 200.149 65.7905 199.99 65.2237 199.672C64.657 199.35 64.2211 198.896 63.9162 198.31C63.6113 197.72 63.4588 197.022 63.4588 196.217C63.4588 195.431 63.6113 194.742 63.9162 194.148C64.2211 193.555 64.6503 193.093 65.2038 192.761C65.7607 192.43 66.4136 192.264 67.1626 192.264C67.8355 192.264 68.442 192.407 68.9822 192.692C69.5258 192.977 69.9567 193.408 70.2749 193.984C70.593 194.558 70.7521 195.277 70.7521 196.142V196.724H65.5518V196.729C65.5518 197.299 65.7076 197.748 66.0192 198.076C66.3307 198.404 66.7517 198.568 67.282 198.568C67.6366 198.568 67.9432 198.494 68.2017 198.344C68.4602 198.195 68.6425 197.975 68.7486 197.683L70.7074 197.812C70.5582 198.522 70.1804 199.089 69.5739 199.513C68.9673 199.937 68.1918 200.149 67.2472 200.149ZM65.5518 195.411H68.7585C68.7552 194.957 68.6094 194.583 68.321 194.288C68.0327 193.993 67.6581 193.845 67.1974 193.845C66.7268 193.845 66.3407 193.998 66.0391 194.303C65.7375 194.607 65.575 194.977 65.5518 195.411ZM72.1342 200V192.364H74.1875V193.696H74.267C74.4063 193.222 74.6383 192.864 74.9631 192.622C75.2912 192.377 75.6707 192.254 76.1016 192.254C76.3071 192.254 76.4976 192.279 76.6733 192.329C76.849 192.379 77.0064 192.446 77.1456 192.533L76.5092 194.283C76.4098 194.233 76.3004 194.192 76.1811 194.158C76.0651 194.122 75.9342 194.104 75.7884 194.104C75.3608 194.104 74.9979 194.25 74.6996 194.541C74.4046 194.833 74.2554 195.212 74.2521 195.68V200H72.1342ZM81.2608 200.149C80.4786 200.149 79.8042 199.99 79.2374 199.672C78.6706 199.35 78.2348 198.896 77.9299 198.31C77.6249 197.72 77.4725 197.022 77.4725 196.217C77.4725 195.431 77.6249 194.742 77.9299 194.148C78.2348 193.555 78.664 193.093 79.2175 192.761C79.7743 192.43 80.4273 192.264 81.1763 192.264C81.8491 192.264 82.4557 192.407 82.9959 192.692C83.5395 192.977 83.9703 193.408 84.2885 193.984C84.6067 194.558 84.7658 195.277 84.7658 196.142V196.724H79.5655V196.729C79.5655 197.299 79.7213 197.748 80.0328 198.076C80.3444 198.404 80.7653 198.568 81.2956 198.568C81.6503 198.568 81.9569 198.494 82.2154 198.344C82.4739 198.195 82.6562 197.975 82.7623 197.683L84.7211 197.812C84.5719 198.522 84.1941 199.089 83.5875 199.513C82.981 199.937 82.2054 200.149 81.2608 200.149ZM79.5655 195.411H82.7722C82.7689 194.957 82.623 194.583 82.3347 194.288C82.0463 193.993 81.6718 193.845 81.2111 193.845C80.7405 193.845 80.3543 193.998 80.0527 194.303C79.7511 194.607 79.5887 194.977 79.5655 195.411ZM88.9618 200.124C88.3818 200.124 87.8581 199.975 87.3908 199.677C86.9235 199.375 86.5523 198.933 86.2772 198.349C86.0021 197.763 85.8645 197.044 85.8645 196.192C85.8645 195.317 86.0054 194.589 86.2871 194.009C86.5721 193.426 86.9483 192.99 87.4157 192.702C87.8863 192.41 88.4 192.264 88.9569 192.264C89.3844 192.264 89.7407 192.337 90.0257 192.483C90.3141 192.625 90.5461 192.803 90.7218 193.015C90.9007 193.227 91.0366 193.437 91.1294 193.646H91.1941V189.818H93.307V200H91.2189V198.777H91.1294C91.0333 198.989 90.8941 199.2 90.7118 199.408C90.5295 199.614 90.2942 199.785 90.0059 199.92C89.7208 200.056 89.3728 200.124 88.9618 200.124ZM89.633 198.439C90.1434 198.439 90.5378 198.233 90.8162 197.822C91.098 197.408 91.2388 196.861 91.2388 196.182C91.2388 195.499 91.0996 194.957 90.8212 194.556C90.5428 194.152 90.1467 193.95 89.633 193.95C89.1093 193.95 88.7099 194.157 88.4348 194.571C88.1631 194.982 88.0272 195.519 88.0272 196.182C88.0272 196.848 88.1647 197.392 88.4398 197.812C88.7149 198.23 89.1126 198.439 89.633 198.439Z" fill="black"/>
<rect x="262.5" y="166.5" width="120" height="56" fill="black" stroke="black" stroke-width="3"/>
<path d="M298.666 191H295.057V180.818H298.696C299.72 180.818 300.602 181.022 301.341 181.43C302.083 181.834 302.653 182.416 303.051 183.175C303.449 183.934 303.648 184.842 303.648 185.899C303.648 186.96 303.447 187.871 303.046 188.634C302.648 189.396 302.077 189.981 301.331 190.388C300.589 190.796 299.7 191 298.666 191ZM297.21 189.156H298.577C299.535 189.156 300.26 188.897 300.754 188.38C301.251 187.863 301.5 187.036 301.5 185.899C301.5 184.769 301.251 183.947 300.754 183.433C300.26 182.92 299.536 182.663 298.582 182.663H297.21V189.156ZM308.683 191.149C307.901 191.149 307.226 190.99 306.659 190.672C306.093 190.35 305.657 189.896 305.352 189.31C305.047 188.72 304.894 188.022 304.894 187.217C304.894 186.431 305.047 185.742 305.352 185.148C305.657 184.555 306.086 184.093 306.639 183.761C307.196 183.43 307.849 183.264 308.598 183.264C309.271 183.264 309.878 183.407 310.418 183.692C310.961 183.977 311.392 184.408 311.71 184.984C312.029 185.558 312.188 186.277 312.188 187.142V187.724H306.987V187.729C306.987 188.299 307.143 188.748 307.455 189.076C307.766 189.404 308.187 189.568 308.718 189.568C309.072 189.568 309.379 189.494 309.637 189.344C309.896 189.195 310.078 188.975 310.184 188.683L312.143 188.812C311.994 189.522 311.616 190.089 311.009 190.513C310.403 190.937 309.627 191.149 308.683 191.149ZM306.987 186.411H310.194C310.191 185.957 310.045 185.583 309.757 185.288C309.468 184.993 309.094 184.845 308.633 184.845C308.162 184.845 307.776 184.998 307.475 185.303C307.173 185.607 307.011 185.977 306.987 186.411ZM315.688 180.818V191H313.57V180.818H315.688ZM317.384 191V183.364H319.502V191H317.384ZM318.448 182.379C318.137 182.379 317.868 182.275 317.643 182.066C317.417 181.854 317.305 181.6 317.305 181.305C317.305 181.01 317.417 180.759 317.643 180.55C317.868 180.341 318.137 180.237 318.448 180.237C318.763 180.237 319.033 180.341 319.259 180.55C319.484 180.759 319.597 181.01 319.597 181.305C319.597 181.6 319.484 181.854 319.259 182.066C319.033 182.275 318.763 182.379 318.448 182.379ZM328.318 183.364L325.648 191H323.262L320.592 183.364H322.829L324.415 188.827H324.495L326.076 183.364H328.318ZM332.622 191.149C331.84 191.149 331.165 190.99 330.599 190.672C330.032 190.35 329.596 189.896 329.291 189.31C328.986 188.72 328.834 188.022 328.834 187.217C328.834 186.431 328.986 185.742 329.291 185.148C329.596 184.555 330.025 184.093 330.579 183.761C331.136 183.43 331.789 183.264 332.538 183.264C333.21 183.264 333.817 183.407 334.357 183.692C334.901 183.977 335.332 184.408 335.65 184.984C335.968 185.558 336.127 186.277 336.127 187.142V187.724H330.927V187.729C330.927 188.299 331.083 188.748 331.394 189.076C331.706 189.404 332.127 189.568 332.657 189.568C333.012 189.568 333.318 189.494 333.577 189.344C333.835 189.195 334.018 188.975 334.124 188.683L336.082 188.812C335.933 189.522 335.555 190.089 334.949 190.513C334.342 190.937 333.567 191.149 332.622 191.149ZM330.927 186.411H334.134C334.13 185.957 333.984 185.583 333.696 185.288C333.408 184.993 333.033 184.845 332.572 184.845C332.102 184.845 331.716 184.998 331.414 185.303C331.112 185.607 330.95 185.977 330.927 186.411ZM337.509 191V183.364H339.562V184.696H339.642C339.781 184.222 340.015 183.864 340.343 183.622C340.671 183.377 341.049 183.254 341.477 183.254C341.712 183.254 341.934 183.279 342.143 183.329V185.208C342.043 185.175 341.906 185.148 341.73 185.129C341.554 185.105 341.394 185.094 341.248 185.094C340.781 185.094 340.393 185.241 340.085 185.536C339.78 185.828 339.627 186.209 339.627 186.68V191H337.509ZM344.703 193.973C344.402 193.973 344.143 193.946 343.928 193.893C343.715 193.844 343.55 193.792 343.43 193.739L343.908 192.099C344.282 192.211 344.597 192.241 344.852 192.188C345.111 192.135 345.315 191.935 345.464 191.587L345.603 191.219L342.864 183.364H345.091L346.672 188.972H346.751L348.347 183.364H350.589L347.607 191.875C347.391 192.485 347.046 192.987 346.572 193.381C346.102 193.776 345.479 193.973 344.703 193.973ZM291.515 208.149C290.733 208.149 290.06 207.983 289.497 207.652C288.937 207.317 288.506 206.853 288.204 206.26C287.906 205.667 287.757 204.984 287.757 204.212C287.757 203.429 287.907 202.743 288.209 202.153C288.514 201.56 288.947 201.098 289.507 200.766C290.067 200.432 290.733 200.264 291.505 200.264C292.171 200.264 292.755 200.385 293.255 200.627C293.759 200.869 294.155 201.209 294.443 201.646C294.735 202.084 294.896 202.598 294.926 203.188H292.927C292.871 202.806 292.722 202.5 292.48 202.268C292.241 202.032 291.928 201.915 291.54 201.915C291.05 201.915 290.655 202.112 290.357 202.506C290.059 202.901 289.909 203.459 289.909 204.182C289.909 204.911 290.057 205.476 290.352 205.877C290.65 206.275 291.046 206.474 291.54 206.474C291.905 206.474 292.211 206.364 292.46 206.146C292.708 205.924 292.864 205.609 292.927 205.201H294.926C294.893 205.784 294.733 206.298 294.448 206.742C294.167 207.186 293.777 207.533 293.28 207.781C292.783 208.027 292.195 208.149 291.515 208.149ZM299.732 208.149C298.96 208.149 298.292 207.985 297.728 207.657C297.168 207.326 296.736 206.865 296.431 206.275C296.126 205.682 295.973 204.994 295.973 204.212C295.973 203.423 296.126 202.733 296.431 202.143C296.736 201.55 297.168 201.089 297.728 200.761C298.292 200.43 298.96 200.264 299.732 200.264C300.504 200.264 301.17 200.43 301.731 200.761C302.294 201.089 302.728 201.55 303.033 202.143C303.338 202.733 303.491 203.423 303.491 204.212C303.491 204.994 303.338 205.682 303.033 206.275C302.728 206.865 302.294 207.326 301.731 207.657C301.17 207.985 300.504 208.149 299.732 208.149ZM299.742 206.509C300.266 206.509 300.662 206.29 300.93 205.852C301.202 205.415 301.338 204.863 301.338 204.197C301.338 203.531 301.202 202.979 300.93 202.541C300.662 202.1 300.266 201.88 299.742 201.88C299.208 201.88 298.806 202.1 298.534 202.541C298.262 202.979 298.126 203.531 298.126 204.197C298.126 204.863 298.262 205.415 298.534 205.852C298.806 206.29 299.208 206.509 299.742 206.509ZM306.986 203.585V208H304.868V200.364H306.886V201.711H306.976C307.148 201.267 307.431 200.915 307.826 200.657C308.223 200.395 308.706 200.264 309.272 200.264C310.068 200.264 310.706 200.521 311.187 201.035C311.667 201.545 311.907 202.246 311.907 203.138V208H309.79V203.516C309.793 203.048 309.674 202.684 309.432 202.422C309.19 202.157 308.857 202.024 308.432 202.024C308.005 202.024 307.657 202.162 307.388 202.437C307.123 202.709 306.989 203.091 306.986 203.585ZM317.753 200.364V201.955H316.236V208H314.119V201.955H313.04V200.364H314.119V199.812C314.119 198.98 314.355 198.36 314.829 197.952C315.307 197.545 315.905 197.341 316.624 197.341C316.949 197.341 317.246 197.366 317.514 197.415C317.786 197.465 317.988 197.51 318.121 197.55L317.748 199.141C317.665 199.114 317.562 199.089 317.44 199.066C317.317 199.043 317.193 199.031 317.067 199.031C316.755 199.031 316.538 199.104 316.415 199.25C316.296 199.393 316.236 199.593 316.236 199.852V200.364H317.753ZM319.045 208V200.364H321.163V208H319.045ZM320.109 199.379C319.798 199.379 319.529 199.275 319.304 199.066C319.079 198.854 318.966 198.6 318.966 198.305C318.966 198.01 319.079 197.759 319.304 197.55C319.529 197.341 319.798 197.237 320.109 197.237C320.424 197.237 320.694 197.341 320.92 197.55C321.145 197.759 321.258 198.01 321.258 198.305C321.258 198.6 321.145 198.854 320.92 199.066C320.694 199.275 320.424 199.379 320.109 199.379ZM322.86 208V200.364H324.913V201.696H324.993C325.132 201.222 325.366 200.864 325.694 200.622C326.022 200.377 326.4 200.254 326.827 200.254C327.062 200.254 327.285 200.279 327.493 200.329V202.208C327.394 202.175 327.256 202.148 327.081 202.129C326.905 202.105 326.744 202.094 326.598 202.094C326.131 202.094 325.743 202.241 325.435 202.536C325.13 202.828 324.978 203.209 324.978 203.68V208H322.86ZM328.588 208V200.364H330.607V201.711H330.696C330.855 201.26 331.121 200.907 331.492 200.652C331.866 200.393 332.31 200.264 332.824 200.264C333.348 200.264 333.794 200.395 334.161 200.657C334.529 200.915 334.775 201.267 334.897 201.711H334.977C335.133 201.273 335.414 200.924 335.822 200.662C336.233 200.397 336.719 200.264 337.279 200.264C337.991 200.264 338.57 200.491 339.014 200.945C339.461 201.396 339.685 202.036 339.685 202.864V208H337.572V203.282C337.572 202.858 337.459 202.54 337.234 202.327C337.009 202.115 336.727 202.009 336.389 202.009C336.004 202.009 335.704 202.132 335.489 202.377C335.273 202.622 335.166 202.942 335.166 203.337V208H333.112V203.237C333.112 202.863 333.005 202.564 332.789 202.342C332.577 202.12 332.297 202.009 331.949 202.009C331.598 202.009 331.303 202.138 331.064 202.397C330.826 202.652 330.706 202.992 330.706 203.416V208H328.588ZM344.838 208.149C344.056 208.149 343.381 207.99 342.815 207.672C342.248 207.35 341.812 206.896 341.507 206.31C341.202 205.72 341.05 205.022 341.05 204.217C341.05 203.431 341.202 202.742 341.507 202.148C341.812 201.555 342.241 201.093 342.795 200.761C343.351 200.43 344.004 200.264 344.753 200.264C345.426 200.264 346.033 200.407 346.573 200.692C347.117 200.977 347.547 201.408 347.866 201.984C348.184 202.558 348.343 203.277 348.343 204.142V204.724H343.143V204.729C343.143 205.299 343.298 205.748 343.61 206.076C343.922 206.404 344.342 206.568 344.873 206.568C345.227 206.568 345.534 206.494 345.793 206.344C346.051 206.195 346.233 205.975 346.339 205.683L348.298 205.812C348.149 206.522 347.771 207.089 347.165 207.513C346.558 207.937 345.783 208.149 344.838 208.149ZM343.143 203.411H346.349C346.346 202.957 346.2 202.583 345.912 202.288C345.623 201.993 345.249 201.845 344.788 201.845C344.318 201.845 343.931 201.998 343.63 202.303C343.328 202.607 343.166 202.977 343.143 203.411ZM352.539 208.124C351.959 208.124 351.435 207.975 350.968 207.677C350.501 207.375 350.129 206.933 349.854 206.349C349.579 205.763 349.442 205.044 349.442 204.192C349.442 203.317 349.583 202.589 349.864 202.009C350.149 201.426 350.525 200.99 350.993 200.702C351.463 200.41 351.977 200.264 352.534 200.264C352.962 200.264 353.318 200.337 353.603 200.483C353.891 200.625 354.123 200.803 354.299 201.015C354.478 201.227 354.614 201.437 354.707 201.646H354.771V197.818H356.884V208H354.796V206.777H354.707C354.61 206.989 354.471 207.2 354.289 207.408C354.107 207.614 353.871 207.785 353.583 207.92C353.298 208.056 352.95 208.124 352.539 208.124ZM353.21 206.439C353.721 206.439 354.115 206.233 354.393 205.822C354.675 205.408 354.816 204.861 354.816 204.182C354.816 203.499 354.677 202.957 354.398 202.556C354.12 202.152 353.724 201.95 353.21 201.95C352.686 201.95 352.287 202.157 352.012 202.571C351.74 202.982 351.604 203.519 351.604 204.182C351.604 204.848 351.742 205.392 352.017 205.812C352.292 206.23 352.69 206.439 353.21 206.439Z" fill="white"/>
<rect x="1.5" y="1.5" width="120" height="56" stroke="black" stroke-width="3"/>
<path d="M25.1396 33.9609C24.889 34.3301 24.5859 34.6195 24.2305 34.8291C23.8796 35.0387 23.4945 35.1436 23.0752 35.1436C22.6924 35.1436 22.3415 35.0843 22.0225 34.9658C21.7035 34.8473 21.43 34.6605 21.2021 34.4053C20.9743 34.1455 20.7965 33.8174 20.6689 33.4209C20.5459 33.0199 20.4844 32.5391 20.4844 31.9785V27.6035H22.3848V31.9922C22.3848 32.293 22.4053 32.5459 22.4463 32.751C22.4919 32.9561 22.5625 33.1224 22.6582 33.25C22.7539 33.373 22.8792 33.4619 23.0342 33.5166C23.1891 33.5713 23.3783 33.5986 23.6016 33.5986C23.9798 33.5986 24.2874 33.528 24.5244 33.3867C24.7614 33.2409 24.9414 33.0426 25.0645 32.792V27.6035H26.9717V35H25.249L25.1396 33.9609ZM30.5537 27.6035L30.6699 28.6289C30.9342 28.2598 31.2555 27.9749 31.6338 27.7744C32.012 27.5693 32.4313 27.4668 32.8916 27.4668C33.2653 27.4668 33.6071 27.5215 33.917 27.6309C34.2269 27.7402 34.4935 27.9157 34.7168 28.1572C34.9447 28.3942 35.1201 28.7018 35.2432 29.0801C35.3708 29.4538 35.4346 29.9095 35.4346 30.4473V35H33.5342V30.4746C33.5342 30.1829 33.5 29.9437 33.4316 29.7568C33.3678 29.5654 33.2744 29.415 33.1514 29.3057C33.0283 29.1963 32.8802 29.1211 32.707 29.0801C32.5339 29.0345 32.3379 29.0117 32.1191 29.0117C31.7956 29.0117 31.5199 29.0778 31.292 29.21C31.0641 29.3376 30.8796 29.5153 30.7383 29.7432V35H28.8311V27.6035H30.5537ZM41.8604 35C41.8148 34.9089 41.776 34.804 41.7441 34.6855C41.7122 34.5671 41.6849 34.4417 41.6621 34.3096C41.5573 34.4235 41.4365 34.5306 41.2998 34.6309C41.1631 34.7311 41.0104 34.82 40.8418 34.8975C40.6777 34.9704 40.4954 35.0273 40.2949 35.0684C40.0944 35.1139 39.8779 35.1367 39.6455 35.1367C39.2673 35.1367 38.9186 35.082 38.5996 34.9727C38.2852 34.8633 38.014 34.7106 37.7861 34.5146C37.5583 34.3187 37.3805 34.0863 37.2529 33.8174C37.1253 33.5439 37.0615 33.2477 37.0615 32.9287C37.0615 32.1494 37.3509 31.5479 37.9297 31.124C38.513 30.6956 39.3812 30.4814 40.5342 30.4814H41.5938V30.0439C41.5938 29.6885 41.4775 29.4082 41.2451 29.2031C41.0127 28.9935 40.6777 28.8887 40.2402 28.8887C39.8529 28.8887 39.5703 28.973 39.3926 29.1416C39.2148 29.3057 39.126 29.5267 39.126 29.8047H37.2256C37.2256 29.4902 37.2939 29.1917 37.4307 28.9092C37.5719 28.6266 37.7747 28.3783 38.0391 28.1641C38.3079 27.9499 38.6338 27.7812 39.0166 27.6582C39.404 27.5306 39.846 27.4668 40.3428 27.4668C40.7894 27.4668 41.2041 27.5215 41.5869 27.6309C41.9743 27.7402 42.3092 27.902 42.5918 28.1162C42.8743 28.3304 43.0954 28.6016 43.2549 28.9297C43.4144 29.2533 43.4941 29.6292 43.4941 30.0576V33.2295C43.4941 33.626 43.5192 33.9541 43.5693 34.2139C43.6195 34.4736 43.6924 34.6969 43.7881 34.8838V35H41.8604ZM40.0488 33.667C40.2402 33.667 40.418 33.6442 40.582 33.5986C40.7461 33.5531 40.8942 33.4938 41.0264 33.4209C41.1585 33.348 41.2725 33.266 41.3682 33.1748C41.4639 33.0791 41.5391 32.9834 41.5938 32.8877V31.6162H40.623C40.3268 31.6162 40.0739 31.6458 39.8643 31.7051C39.6546 31.7598 39.4837 31.8395 39.3516 31.9443C39.2194 32.0446 39.1214 32.1676 39.0576 32.3135C38.9938 32.4548 38.9619 32.6097 38.9619 32.7783C38.9619 33.0335 39.0508 33.2454 39.2285 33.4141C39.4108 33.5827 39.6842 33.667 40.0488 33.667ZM50.4189 32.9697C50.4189 32.8558 50.3916 32.7555 50.3369 32.6689C50.2868 32.5824 50.1934 32.5026 50.0566 32.4297C49.9245 32.3522 49.7467 32.2816 49.5234 32.2178C49.3001 32.154 49.0176 32.0902 48.6758 32.0264C48.2428 31.9398 47.8464 31.8327 47.4863 31.7051C47.1309 31.5729 46.8255 31.4157 46.5703 31.2334C46.3151 31.0465 46.1146 30.8324 45.9688 30.5908C45.8275 30.3493 45.7568 30.0713 45.7568 29.7568C45.7568 29.4515 45.8298 29.1598 45.9756 28.8818C46.1214 28.6038 46.3311 28.36 46.6045 28.1504C46.8779 27.9408 47.2106 27.7744 47.6025 27.6514C47.9945 27.5283 48.4365 27.4668 48.9287 27.4668C49.4437 27.4668 49.9062 27.5283 50.3164 27.6514C50.7266 27.7699 51.0729 27.9362 51.3555 28.1504C51.6426 28.36 51.8613 28.6107 52.0117 28.9023C52.1621 29.194 52.2373 29.5107 52.2373 29.8525H50.3369C50.3369 29.5654 50.2207 29.3262 49.9883 29.1348C49.7559 28.9388 49.4027 28.8408 48.9287 28.8408C48.4867 28.8408 48.1517 28.9206 47.9238 29.0801C47.7005 29.2396 47.5889 29.4355 47.5889 29.668C47.5889 29.7773 47.6117 29.8799 47.6572 29.9756C47.7028 30.0667 47.7826 30.151 47.8965 30.2285C48.015 30.3014 48.1745 30.3698 48.375 30.4336C48.5755 30.4928 48.8307 30.5452 49.1406 30.5908C49.5872 30.6637 50.002 30.7572 50.3848 30.8711C50.7676 30.985 51.098 31.1331 51.376 31.3154C51.654 31.4932 51.8704 31.7119 52.0254 31.9717C52.1849 32.2269 52.2646 32.5322 52.2646 32.8877C52.2646 33.2158 52.1849 33.5189 52.0254 33.7969C51.8704 34.0703 51.6471 34.3073 51.3555 34.5078C51.0684 34.7083 50.7197 34.8656 50.3096 34.9795C49.8994 35.0889 49.4414 35.1436 48.9355 35.1436C48.3796 35.1436 47.8874 35.0706 47.459 34.9248C47.0352 34.779 46.6797 34.5898 46.3926 34.3574C46.1055 34.1204 45.8867 33.8538 45.7363 33.5576C45.5905 33.2568 45.5176 32.9561 45.5176 32.6553H47.3291C47.3428 32.8558 47.3975 33.029 47.4932 33.1748C47.5889 33.3161 47.7119 33.4323 47.8623 33.5234C48.0127 33.61 48.1836 33.6738 48.375 33.7148C48.571 33.7559 48.7715 33.7764 48.9766 33.7764C49.446 33.7764 49.8037 33.7012 50.0498 33.5508C50.2959 33.4004 50.4189 33.2067 50.4189 32.9697ZM58.8271 32.9697C58.8271 32.8558 58.7998 32.7555 58.7451 32.6689C58.695 32.5824 58.6016 32.5026 58.4648 32.4297C58.3327 32.3522 58.1549 32.2816 57.9316 32.2178C57.7083 32.154 57.4258 32.0902 57.084 32.0264C56.651 31.9398 56.2546 31.8327 55.8945 31.7051C55.5391 31.5729 55.2337 31.4157 54.9785 31.2334C54.7233 31.0465 54.5228 30.8324 54.377 30.5908C54.2357 30.3493 54.165 30.0713 54.165 29.7568C54.165 29.4515 54.238 29.1598 54.3838 28.8818C54.5296 28.6038 54.7393 28.36 55.0127 28.1504C55.2861 27.9408 55.6188 27.7744 56.0107 27.6514C56.4027 27.5283 56.8447 27.4668 57.3369 27.4668C57.8519 27.4668 58.3145 27.5283 58.7246 27.6514C59.1348 27.7699 59.4811 27.9362 59.7637 28.1504C60.0508 28.36 60.2695 28.6107 60.4199 28.9023C60.5703 29.194 60.6455 29.5107 60.6455 29.8525H58.7451C58.7451 29.5654 58.6289 29.3262 58.3965 29.1348C58.1641 28.9388 57.8109 28.8408 57.3369 28.8408C56.8949 28.8408 56.5599 28.9206 56.332 29.0801C56.1087 29.2396 55.9971 29.4355 55.9971 29.668C55.9971 29.7773 56.0199 29.8799 56.0654 29.9756C56.111 30.0667 56.1908 30.151 56.3047 30.2285C56.4232 30.3014 56.5827 30.3698 56.7832 30.4336C56.9837 30.4928 57.2389 30.5452 57.5488 30.5908C57.9954 30.6637 58.4102 30.7572 58.793 30.8711C59.1758 30.985 59.5062 31.1331 59.7842 31.3154C60.0622 31.4932 60.2786 31.7119 60.4336 31.9717C60.5931 32.2269 60.6729 32.5322 60.6729 32.8877C60.6729 33.2158 60.5931 33.5189 60.4336 33.7969C60.2786 34.0703 60.0553 34.3073 59.7637 34.5078C59.4766 34.7083 59.1279 34.8656 58.7178 34.9795C58.3076 35.0889 57.8496 35.1436 57.3438 35.1436C56.7878 35.1436 56.2956 35.0706 55.8672 34.9248C55.4434 34.779 55.0879 34.5898 54.8008 34.3574C54.5137 34.1204 54.2949 33.8538 54.1445 33.5576C53.9987 33.2568 53.9258 32.9561 53.9258 32.6553H55.7373C55.751 32.8558 55.8057 33.029 55.9014 33.1748C55.9971 33.3161 56.1201 33.4323 56.2705 33.5234C56.4209 33.61 56.5918 33.6738 56.7832 33.7148C56.9792 33.7559 57.1797 33.7764 57.3848 33.7764C57.8542 33.7764 58.2119 33.7012 58.458 33.5508C58.7041 33.4004 58.8271 33.2067 58.8271 32.9697ZM62.9697 27.6035H66.9961V33.4551H68.999V35H62.9697V33.4551H65.0752V29.1553H62.9697V27.6035ZM64.9385 25.71C64.9385 25.5641 64.9635 25.4297 65.0137 25.3066C65.0684 25.179 65.1436 25.0719 65.2393 24.9854C65.335 24.8942 65.4489 24.8236 65.5811 24.7734C65.7178 24.7233 65.8682 24.6982 66.0322 24.6982C66.3695 24.6982 66.6361 24.7939 66.832 24.9854C67.0326 25.1722 67.1328 25.4137 67.1328 25.71C67.1328 26.0062 67.0326 26.25 66.832 26.4414C66.6361 26.6283 66.3695 26.7217 66.0322 26.7217C65.8682 26.7217 65.7178 26.6966 65.5811 26.6465C65.4489 26.5964 65.335 26.528 65.2393 26.4414C65.1436 26.3503 65.0684 26.2432 65.0137 26.1201C64.9635 25.9925 64.9385 25.8558 64.9385 25.71ZM70.6807 31.2471C70.6807 30.6865 70.749 30.1738 70.8857 29.709C71.027 29.2441 71.2275 28.8454 71.4873 28.5127C71.7471 28.18 72.0615 27.9225 72.4307 27.7402C72.7998 27.5579 73.2168 27.4668 73.6816 27.4668C74.1146 27.4668 74.486 27.5397 74.7959 27.6855C75.1058 27.8314 75.3701 28.0387 75.5889 28.3076L75.6641 27.6035H77.3936V34.7607C77.3936 35.262 77.307 35.7087 77.1338 36.1006C76.9652 36.4925 76.7259 36.8229 76.416 37.0918C76.1107 37.3607 75.7415 37.5635 75.3086 37.7002C74.8802 37.8415 74.4062 37.9121 73.8867 37.9121C73.6634 37.9121 73.4242 37.8893 73.1689 37.8438C72.9137 37.7982 72.6608 37.7275 72.4102 37.6318C72.1595 37.5361 71.9225 37.4131 71.6992 37.2627C71.4759 37.1169 71.2845 36.9414 71.125 36.7363L71.9795 35.5811C72.221 35.8545 72.4945 36.0618 72.7998 36.2031C73.1051 36.349 73.4355 36.4219 73.791 36.4219C74.3242 36.4219 74.7389 36.2783 75.0352 35.9912C75.3359 35.7087 75.4863 35.3053 75.4863 34.7812V34.3574C75.263 34.6035 75.001 34.7949 74.7002 34.9316C74.404 35.0684 74.0599 35.1367 73.668 35.1367C73.2077 35.1367 72.793 35.0433 72.4238 34.8564C72.0592 34.665 71.7471 34.403 71.4873 34.0703C71.2275 33.7376 71.027 33.3434 70.8857 32.8877C70.749 32.4274 70.6807 31.9284 70.6807 31.3906V31.2471ZM72.5879 31.3906C72.5879 31.7005 72.6175 31.9899 72.6768 32.2588C72.7406 32.5231 72.8363 32.7555 72.9639 32.9561C73.0915 33.152 73.2533 33.307 73.4492 33.4209C73.6452 33.5348 73.8776 33.5918 74.1465 33.5918C74.4792 33.5918 74.7526 33.528 74.9668 33.4004C75.1855 33.2728 75.3587 33.0951 75.4863 32.8672V29.7363C75.3587 29.5039 75.1855 29.3262 74.9668 29.2031C74.7526 29.0755 74.4837 29.0117 74.1602 29.0117C73.8913 29.0117 73.6589 29.071 73.4629 29.1895C73.2669 29.3034 73.1029 29.4629 72.9707 29.668C72.8431 29.8685 72.7474 30.1055 72.6836 30.3789C72.6198 30.6478 72.5879 30.9372 72.5879 31.2471V31.3906ZM81.0029 27.6035L81.1191 28.6289C81.3835 28.2598 81.7048 27.9749 82.083 27.7744C82.4613 27.5693 82.8805 27.4668 83.3408 27.4668C83.7145 27.4668 84.0563 27.5215 84.3662 27.6309C84.6761 27.7402 84.9427 27.9157 85.166 28.1572C85.3939 28.3942 85.5693 28.7018 85.6924 29.0801C85.82 29.4538 85.8838 29.9095 85.8838 30.4473V35H83.9834V30.4746C83.9834 30.1829 83.9492 29.9437 83.8809 29.7568C83.8171 29.5654 83.7236 29.415 83.6006 29.3057C83.4775 29.1963 83.3294 29.1211 83.1562 29.0801C82.9831 29.0345 82.7871 29.0117 82.5684 29.0117C82.2448 29.0117 81.9691 29.0778 81.7412 29.21C81.5133 29.3376 81.3288 29.5153 81.1875 29.7432V35H79.2803V27.6035H81.0029ZM91.2773 35.1367C90.7077 35.1367 90.1904 35.0433 89.7256 34.8564C89.2607 34.6696 88.862 34.4167 88.5293 34.0977C88.1966 33.7741 87.9391 33.3958 87.7568 32.9629C87.5791 32.5254 87.4902 32.0583 87.4902 31.5615V31.2881C87.4902 30.723 87.5791 30.208 87.7568 29.7432C87.9346 29.2738 88.1829 28.8704 88.502 28.5332C88.821 28.196 89.1992 27.9339 89.6367 27.7471C90.0742 27.5602 90.5505 27.4668 91.0654 27.4668C91.5986 27.4668 92.0726 27.5557 92.4873 27.7334C92.9066 27.9066 93.2598 28.1527 93.5469 28.4717C93.8385 28.7907 94.0596 29.1758 94.21 29.627C94.3604 30.0736 94.4355 30.568 94.4355 31.1104V31.917H89.418C89.4544 32.1676 89.5273 32.3978 89.6367 32.6074C89.7507 32.8125 89.8942 32.9902 90.0674 33.1406C90.2406 33.291 90.4388 33.4072 90.6621 33.4893C90.8854 33.5713 91.1292 33.6123 91.3936 33.6123C91.5804 33.6123 91.765 33.5941 91.9473 33.5576C92.1341 33.5212 92.3118 33.4688 92.4805 33.4004C92.6491 33.3275 92.8063 33.2386 92.9521 33.1338C93.098 33.029 93.2256 32.9059 93.335 32.7646L94.2852 33.79C94.1667 33.9587 94.0117 34.125 93.8203 34.2891C93.6335 34.4486 93.4102 34.5921 93.1504 34.7197C92.8952 34.8428 92.6104 34.943 92.2959 35.0205C91.9814 35.098 91.6419 35.1367 91.2773 35.1367ZM91.0518 29.0049C90.8376 29.0049 90.6416 29.0436 90.4639 29.1211C90.2861 29.194 90.1289 29.3011 89.9922 29.4424C89.86 29.5837 89.7484 29.7523 89.6572 29.9482C89.5661 30.1442 89.4977 30.363 89.4521 30.6045H92.5693V30.4541C92.5602 30.2536 92.5215 30.0645 92.4531 29.8867C92.3848 29.709 92.2868 29.5563 92.1592 29.4287C92.0316 29.2965 91.8743 29.194 91.6875 29.1211C91.5052 29.0436 91.2933 29.0049 91.0518 29.0049ZM95.8984 31.2471C95.8984 30.6865 95.9622 30.1738 96.0898 29.709C96.222 29.2441 96.4134 28.8454 96.6641 28.5127C96.9147 28.18 97.2178 27.9225 97.5732 27.7402C97.9333 27.5579 98.3434 27.4668 98.8037 27.4668C99.1911 27.4668 99.5306 27.5374 99.8223 27.6787C100.118 27.8154 100.381 28.0114 100.608 28.2666V24.5H102.516V35H100.8L100.704 34.2275C100.472 34.5146 100.198 34.738 99.8838 34.8975C99.5693 35.057 99.2048 35.1367 98.79 35.1367C98.3389 35.1367 97.9333 35.0433 97.5732 34.8564C97.2178 34.665 96.9147 34.403 96.6641 34.0703C96.418 33.7376 96.2288 33.3434 96.0967 32.8877C95.9645 32.4274 95.8984 31.9284 95.8984 31.3906V31.2471ZM97.7988 31.3906C97.7988 31.7005 97.8239 31.9899 97.874 32.2588C97.9287 32.5231 98.0153 32.7555 98.1338 32.9561C98.2523 33.152 98.4049 33.307 98.5918 33.4209C98.7786 33.5348 99.0065 33.5918 99.2754 33.5918C99.6035 33.5918 99.8747 33.5212 100.089 33.3799C100.308 33.2386 100.481 33.0449 100.608 32.7988V29.8047C100.481 29.554 100.31 29.3604 100.096 29.2236C99.8815 29.0824 99.6126 29.0117 99.2891 29.0117C99.0202 29.0117 98.79 29.071 98.5986 29.1895C98.4118 29.3034 98.2591 29.4629 98.1406 29.668C98.0221 29.8685 97.9355 30.1055 97.8809 30.3789C97.8262 30.6478 97.7988 30.9372 97.7988 31.2471V31.3906Z" fill="black"/>
<path d="M133 29.5H246M246 29.5L234.5 18M246 29.5L234.5 41" stroke="#FF0000" stroke-width="3"/>
<path d="M172.186 54C172.143 53.918 172.107 53.8164 172.08 53.6953C172.057 53.5703 172.039 53.4414 172.027 53.3086C171.918 53.418 171.795 53.5215 171.658 53.6191C171.525 53.7168 171.377 53.8027 171.213 53.877C171.053 53.9512 170.881 54.0098 170.697 54.0527C170.514 54.0957 170.318 54.1172 170.111 54.1172C169.775 54.1172 169.471 54.0684 169.197 53.9707C168.928 53.873 168.697 53.7422 168.506 53.5781C168.318 53.4102 168.172 53.2129 168.066 52.9863C167.965 52.7559 167.914 52.5078 167.914 52.2422C167.914 51.8945 167.982 51.5898 168.119 51.3281C168.26 51.0664 168.457 50.8496 168.711 50.6777C168.965 50.502 169.27 50.3711 169.625 50.2852C169.984 50.1992 170.385 50.1562 170.826 50.1562H172.01V49.6582C172.01 49.4668 171.975 49.2949 171.904 49.1426C171.834 48.9902 171.734 48.8613 171.605 48.7559C171.477 48.6465 171.318 48.5625 171.131 48.5039C170.947 48.4453 170.74 48.416 170.51 48.416C170.295 48.416 170.102 48.4434 169.93 48.498C169.762 48.5527 169.619 48.625 169.502 48.7148C169.385 48.8047 169.293 48.9121 169.227 49.0371C169.164 49.1582 169.133 49.2852 169.133 49.418H168.043C168.047 49.1875 168.105 48.9609 168.219 48.7383C168.336 48.5156 168.502 48.3164 168.717 48.1406C168.936 47.9609 169.199 47.8164 169.508 47.707C169.82 47.5977 170.174 47.543 170.568 47.543C170.928 47.543 171.262 47.5879 171.57 47.6777C171.879 47.7637 172.145 47.8965 172.367 48.0762C172.594 48.252 172.771 48.4727 172.9 48.7383C173.029 49.0039 173.094 49.3145 173.094 49.6699V52.6172C173.094 52.8281 173.113 53.0527 173.152 53.291C173.191 53.5254 173.246 53.7305 173.316 53.9062V54H172.186ZM170.27 53.1738C170.48 53.1738 170.678 53.1465 170.861 53.0918C171.045 53.0371 171.211 52.9648 171.359 52.875C171.512 52.7852 171.643 52.6836 171.752 52.5703C171.861 52.4531 171.947 52.332 172.01 52.207V50.9238H171.002C170.369 50.9238 169.877 51.0176 169.525 51.2051C169.174 51.3926 168.998 51.6875 168.998 52.0898C168.998 52.2461 169.023 52.3906 169.074 52.5234C169.129 52.6562 169.209 52.7715 169.314 52.8691C169.42 52.9629 169.553 53.0371 169.713 53.0918C169.873 53.1465 170.059 53.1738 170.27 53.1738ZM179.439 52.3184C179.439 52.1895 179.414 52.0742 179.363 51.9727C179.312 51.8672 179.227 51.7715 179.105 51.6855C178.984 51.5996 178.824 51.5215 178.625 51.4512C178.426 51.377 178.178 51.3105 177.881 51.252C177.518 51.1777 177.186 51.0879 176.885 50.9824C176.588 50.877 176.332 50.752 176.117 50.6074C175.906 50.459 175.742 50.2871 175.625 50.0918C175.508 49.8926 175.449 49.6621 175.449 49.4004C175.449 49.1426 175.51 48.9023 175.631 48.6797C175.752 48.4531 175.922 48.2559 176.141 48.0879C176.359 47.9199 176.619 47.7871 176.92 47.6895C177.225 47.5918 177.559 47.543 177.922 47.543C178.312 47.543 178.664 47.5938 178.977 47.6953C179.289 47.7969 179.555 47.9375 179.773 48.1172C179.992 48.2969 180.16 48.5078 180.277 48.75C180.398 48.9883 180.459 49.2461 180.459 49.5234H179.375C179.375 49.3867 179.34 49.2539 179.27 49.125C179.199 48.9922 179.102 48.875 178.977 48.7734C178.852 48.6719 178.699 48.5898 178.52 48.5273C178.344 48.4648 178.145 48.4336 177.922 48.4336C177.691 48.4336 177.488 48.459 177.312 48.5098C177.141 48.5605 176.996 48.6289 176.879 48.7148C176.766 48.8008 176.68 48.9004 176.621 49.0137C176.562 49.127 176.533 49.2441 176.533 49.3652C176.533 49.4902 176.557 49.6016 176.604 49.6992C176.65 49.7969 176.73 49.8848 176.844 49.9629C176.961 50.041 177.115 50.1113 177.307 50.1738C177.502 50.2363 177.748 50.2969 178.045 50.3555C178.436 50.4375 178.785 50.5332 179.094 50.6426C179.402 50.748 179.662 50.877 179.873 51.0293C180.084 51.1777 180.244 51.3516 180.354 51.5508C180.467 51.75 180.523 51.9805 180.523 52.2422C180.523 52.5234 180.459 52.7793 180.33 53.0098C180.205 53.2402 180.029 53.4375 179.803 53.6016C179.576 53.7656 179.305 53.8926 178.988 53.9824C178.672 54.0723 178.326 54.1172 177.951 54.1172C177.521 54.1172 177.139 54.0605 176.803 53.9473C176.467 53.8301 176.182 53.6777 175.947 53.4902C175.717 53.2988 175.539 53.0781 175.414 52.8281C175.293 52.5781 175.232 52.3184 175.232 52.0488H176.316C176.332 52.2715 176.391 52.459 176.492 52.6113C176.598 52.7637 176.727 52.8867 176.879 52.9805C177.035 53.0742 177.207 53.1406 177.395 53.1797C177.582 53.2188 177.768 53.2383 177.951 53.2383C178.408 53.2383 178.77 53.1543 179.035 52.9863C179.301 52.8184 179.436 52.5957 179.439 52.3184ZM186.646 52.3184C186.646 52.1895 186.621 52.0742 186.57 51.9727C186.52 51.8672 186.434 51.7715 186.312 51.6855C186.191 51.5996 186.031 51.5215 185.832 51.4512C185.633 51.377 185.385 51.3105 185.088 51.252C184.725 51.1777 184.393 51.0879 184.092 50.9824C183.795 50.877 183.539 50.752 183.324 50.6074C183.113 50.459 182.949 50.2871 182.832 50.0918C182.715 49.8926 182.656 49.6621 182.656 49.4004C182.656 49.1426 182.717 48.9023 182.838 48.6797C182.959 48.4531 183.129 48.2559 183.348 48.0879C183.566 47.9199 183.826 47.7871 184.127 47.6895C184.432 47.5918 184.766 47.543 185.129 47.543C185.52 47.543 185.871 47.5938 186.184 47.6953C186.496 47.7969 186.762 47.9375 186.98 48.1172C187.199 48.2969 187.367 48.5078 187.484 48.75C187.605 48.9883 187.666 49.2461 187.666 49.5234H186.582C186.582 49.3867 186.547 49.2539 186.477 49.125C186.406 48.9922 186.309 48.875 186.184 48.7734C186.059 48.6719 185.906 48.5898 185.727 48.5273C185.551 48.4648 185.352 48.4336 185.129 48.4336C184.898 48.4336 184.695 48.459 184.52 48.5098C184.348 48.5605 184.203 48.6289 184.086 48.7148C183.973 48.8008 183.887 48.9004 183.828 49.0137C183.77 49.127 183.74 49.2441 183.74 49.3652C183.74 49.4902 183.764 49.6016 183.811 49.6992C183.857 49.7969 183.938 49.8848 184.051 49.9629C184.168 50.041 184.322 50.1113 184.514 50.1738C184.709 50.2363 184.955 50.2969 185.252 50.3555C185.643 50.4375 185.992 50.5332 186.301 50.6426C186.609 50.748 186.869 50.877 187.08 51.0293C187.291 51.1777 187.451 51.3516 187.561 51.5508C187.674 51.75 187.73 51.9805 187.73 52.2422C187.73 52.5234 187.666 52.7793 187.537 53.0098C187.412 53.2402 187.236 53.4375 187.01 53.6016C186.783 53.7656 186.512 53.8926 186.195 53.9824C185.879 54.0723 185.533 54.1172 185.158 54.1172C184.729 54.1172 184.346 54.0605 184.01 53.9473C183.674 53.8301 183.389 53.6777 183.154 53.4902C182.924 53.2988 182.746 53.0781 182.621 52.8281C182.5 52.5781 182.439 52.3184 182.439 52.0488H183.523C183.539 52.2715 183.598 52.459 183.699 52.6113C183.805 52.7637 183.934 52.8867 184.086 52.9805C184.242 53.0742 184.414 53.1406 184.602 53.1797C184.789 53.2188 184.975 53.2383 185.158 53.2383C185.615 53.2383 185.977 53.1543 186.242 52.9863C186.508 52.8184 186.643 52.5957 186.646 52.3184ZM189.811 47.6602H193.051V53.0625H195.119V54H189.811V53.0625H191.967V48.6035H189.811V47.6602ZM191.826 45.9961C191.826 45.8164 191.879 45.666 191.984 45.5449C192.094 45.4199 192.258 45.3574 192.477 45.3574C192.691 45.3574 192.854 45.4199 192.963 45.5449C193.072 45.666 193.127 45.8164 193.127 45.9961C193.127 46.1719 193.072 46.3184 192.963 46.4355C192.854 46.5527 192.691 46.6113 192.477 46.6113C192.258 46.6113 192.094 46.5527 191.984 46.4355C191.879 46.3184 191.826 46.1719 191.826 45.9961ZM196.648 50.7773C196.648 50.3047 196.705 49.8711 196.818 49.4766C196.936 49.0781 197.104 48.7363 197.322 48.4512C197.541 48.166 197.807 47.9434 198.119 47.7832C198.432 47.623 198.785 47.543 199.18 47.543C199.57 47.543 199.912 47.6133 200.205 47.7539C200.502 47.8906 200.754 48.0898 200.961 48.3516L201.014 47.6602H201.998V53.8652C201.998 54.2832 201.932 54.6543 201.799 54.9785C201.67 55.3027 201.486 55.5781 201.248 55.8047C201.014 56.0312 200.732 56.2031 200.404 56.3203C200.076 56.4375 199.713 56.4961 199.314 56.4961C199.15 56.4961 198.963 56.4766 198.752 56.4375C198.541 56.4023 198.326 56.3418 198.107 56.2559C197.893 56.1738 197.684 56.0625 197.48 55.9219C197.281 55.7812 197.109 55.6074 196.965 55.4004L197.527 54.75C197.66 54.9102 197.797 55.0449 197.938 55.1543C198.078 55.2676 198.221 55.3574 198.365 55.4238C198.51 55.4902 198.654 55.5371 198.799 55.5645C198.943 55.5957 199.088 55.6113 199.232 55.6113C199.49 55.6113 199.723 55.5742 199.93 55.5C200.137 55.4258 200.312 55.3164 200.457 55.1719C200.605 55.0312 200.719 54.8555 200.797 54.6445C200.875 54.4336 200.914 54.1914 200.914 53.918V53.373C200.703 53.6152 200.453 53.8008 200.164 53.9297C199.879 54.0547 199.547 54.1172 199.168 54.1172C198.781 54.1172 198.432 54.0352 198.119 53.8711C197.807 53.707 197.541 53.4805 197.322 53.1914C197.107 52.9023 196.941 52.5625 196.824 52.1719C196.707 51.7773 196.648 51.3535 196.648 50.9004V50.7773ZM197.732 50.9004C197.732 51.209 197.764 51.502 197.826 51.7793C197.893 52.0566 197.994 52.3008 198.131 52.5117C198.271 52.7227 198.449 52.8906 198.664 53.0156C198.879 53.1367 199.137 53.1973 199.438 53.1973C199.625 53.1973 199.793 53.1758 199.941 53.1328C200.094 53.0859 200.229 53.0215 200.346 52.9395C200.467 52.8574 200.574 52.7598 200.668 52.6465C200.762 52.5332 200.844 52.4082 200.914 52.2715V49.3652C200.844 49.2324 200.762 49.1113 200.668 49.002C200.574 48.8926 200.467 48.7988 200.346 48.7207C200.225 48.6387 200.09 48.5762 199.941 48.5332C199.793 48.4863 199.629 48.4629 199.449 48.4629C199.145 48.4629 198.883 48.5254 198.664 48.6504C198.449 48.7754 198.271 48.9453 198.131 49.1602C197.994 49.3711 197.893 49.6172 197.826 49.8984C197.764 50.1758 197.732 50.4688 197.732 50.7773V50.9004ZM205.027 47.6602L205.104 48.5977C205.334 48.2695 205.617 48.0137 205.953 47.8301C206.289 47.6426 206.664 47.5469 207.078 47.543C207.41 47.543 207.711 47.5898 207.98 47.6836C208.254 47.7773 208.486 47.9238 208.678 48.123C208.869 48.3223 209.016 48.5762 209.117 48.8848C209.223 49.1895 209.275 49.5527 209.275 49.9746V54H208.191V49.998C208.191 49.7168 208.16 49.4785 208.098 49.2832C208.035 49.0879 207.941 48.9297 207.816 48.8086C207.695 48.6875 207.545 48.5996 207.365 48.5449C207.189 48.4902 206.986 48.4629 206.756 48.4629C206.393 48.4629 206.072 48.5547 205.795 48.7383C205.521 48.918 205.303 49.1562 205.139 49.4531V54H204.055V47.6602H205.027Z" fill="#FF0000"/>
<path opacity="0.5" d="M187.5 264L187.5 320.5M187.5 320.5L199 309M187.5 320.5L176 309" stroke="#FF0000" stroke-width="3"/>
<path opacity="0.5" d="M199.814 288.777C199.814 288.305 199.873 287.871 199.99 287.477C200.111 287.078 200.281 286.736 200.5 286.451C200.723 286.166 200.99 285.943 201.303 285.783C201.615 285.623 201.965 285.543 202.352 285.543C202.73 285.543 203.061 285.607 203.342 285.736C203.627 285.861 203.873 286.045 204.08 286.287L204.08 283L205.164 283L205.164 292L204.168 292L204.121 291.332C203.91 291.59 203.658 291.785 203.365 291.918C203.072 292.051 202.73 292.117 202.34 292.117C201.957 292.117 201.609 292.035 201.297 291.871C200.988 291.707 200.725 291.48 200.506 291.191C200.287 290.902 200.117 290.563 199.996 290.172C199.875 289.777 199.814 289.354 199.814 288.9L199.814 288.777ZM200.898 288.9C200.898 289.209 200.932 289.502 200.998 289.779C201.064 290.057 201.166 290.301 201.303 290.512C201.443 290.723 201.621 290.891 201.836 291.016C202.051 291.137 202.309 291.197 202.609 291.197C202.793 291.197 202.959 291.176 203.107 291.133C203.256 291.09 203.391 291.029 203.512 290.951C203.633 290.869 203.74 290.773 203.834 290.664C203.928 290.551 204.01 290.426 204.08 290.289L204.08 287.348C203.939 287.09 203.75 286.879 203.512 286.715C203.273 286.547 202.977 286.463 202.621 286.463C202.316 286.463 202.055 286.525 201.836 286.65C201.621 286.775 201.443 286.945 201.303 287.16C201.166 287.371 201.064 287.617 200.998 287.898C200.932 288.176 200.898 288.469 200.898 288.777L200.898 288.9ZM211.381 285.543C211.482 285.543 211.588 285.547 211.697 285.555C211.807 285.559 211.91 285.568 212.008 285.584C212.109 285.596 212.201 285.611 212.283 285.631C212.369 285.65 212.439 285.672 212.494 285.695L212.348 286.756C212.137 286.709 211.936 286.676 211.744 286.656C211.557 286.633 211.359 286.621 211.152 286.621C210.645 286.621 210.232 286.736 209.916 286.967C209.604 287.197 209.373 287.52 209.225 287.934L209.225 292L208.135 292L208.135 285.66L209.166 285.66L209.219 286.668C209.477 286.32 209.785 286.047 210.145 285.848C210.508 285.645 210.92 285.543 211.381 285.543ZM214.129 288.771C214.129 288.314 214.195 287.891 214.328 287.5C214.461 287.105 214.65 286.764 214.896 286.475C215.146 286.186 215.449 285.959 215.805 285.795C216.16 285.627 216.561 285.543 217.006 285.543C217.455 285.543 217.857 285.627 218.213 285.795C218.572 285.959 218.875 286.186 219.121 286.475C219.371 286.764 219.562 287.105 219.695 287.5C219.828 287.891 219.895 288.314 219.895 288.771L219.895 288.9C219.895 289.357 219.828 289.781 219.695 290.172C219.562 290.563 219.371 290.902 219.121 291.191C218.875 291.48 218.574 291.707 218.219 291.871C217.863 292.035 217.463 292.117 217.018 292.117C216.568 292.117 216.164 292.035 215.805 291.871C215.449 291.707 215.146 291.48 214.896 291.191C214.65 290.902 214.461 290.563 214.328 290.172C214.195 289.781 214.129 289.357 214.129 288.9L214.129 288.771ZM215.213 288.9C215.213 289.213 215.25 289.512 215.324 289.797C215.398 290.078 215.51 290.326 215.658 290.541C215.811 290.756 216 290.926 216.227 291.051C216.453 291.176 216.717 291.238 217.018 291.238C217.314 291.238 217.574 291.176 217.797 291.051C218.023 290.926 218.211 290.756 218.359 290.541C218.512 290.326 218.625 290.078 218.699 289.797C218.773 289.512 218.811 289.213 218.811 288.9L218.811 288.771C218.811 288.463 218.771 288.168 218.693 287.887C218.619 287.602 218.506 287.352 218.354 287.137C218.205 286.922 218.018 286.752 217.791 286.627C217.568 286.498 217.307 286.434 217.006 286.434C216.705 286.434 216.443 286.498 216.221 286.627C215.998 286.752 215.811 286.922 215.658 287.137C215.51 287.352 215.398 287.602 215.324 287.887C215.25 288.168 215.213 288.463 215.213 288.771L215.213 288.9ZM226.99 288.9C226.99 289.354 226.936 289.777 226.826 290.172C226.717 290.563 226.557 290.902 226.346 291.191C226.135 291.48 225.873 291.707 225.561 291.871C225.252 292.035 224.898 292.117 224.5 292.117C224.113 292.117 223.771 292.055 223.475 291.93C223.182 291.805 222.93 291.625 222.719 291.391L222.719 294.438L221.635 294.438L221.635 285.66L222.625 285.66L222.678 286.352C222.889 286.09 223.143 285.891 223.439 285.754C223.74 285.613 224.088 285.543 224.482 285.543C224.889 285.543 225.248 285.623 225.561 285.783C225.873 285.943 226.135 286.166 226.346 286.451C226.557 286.736 226.717 287.078 226.826 287.477C226.936 287.871 226.99 288.305 226.99 288.777L226.99 288.9ZM225.906 288.777C225.906 288.469 225.871 288.176 225.801 287.898C225.734 287.617 225.629 287.371 225.484 287.16C225.344 286.945 225.164 286.775 224.945 286.65C224.727 286.525 224.465 286.463 224.16 286.463C223.812 286.463 223.52 286.545 223.281 286.709C223.047 286.869 222.859 287.076 222.719 287.33L222.719 290.383C222.859 290.633 223.047 290.838 223.281 290.998C223.516 291.154 223.812 291.232 224.172 291.232C224.473 291.232 224.732 291.17 224.951 291.045C225.17 290.916 225.35 290.744 225.49 290.529C225.631 290.314 225.734 290.066 225.801 289.785C225.871 289.504 225.906 289.209 225.906 288.9L225.906 288.777Z" fill="#FF0000"/>
<path opacity="0.5" d="M33.5 264L33.5 320.5M33.5 320.5L45 309M33.5 320.5L22 309" stroke="#00C2FF" stroke-width="3"/>
<path opacity="0.5" d="M48.7207 291.238C48.916 291.238 49.1055 291.207 49.2891 291.145C49.4766 291.082 49.6426 290.996 49.7871 290.887C49.9316 290.773 50.0469 290.643 50.1328 290.494C50.2227 290.342 50.2695 290.178 50.2734 290.002L51.2988 290.002C51.2949 290.283 51.2207 290.553 51.0762 290.811C50.9355 291.064 50.7461 291.289 50.5078 291.484C50.2695 291.676 49.9961 291.83 49.6875 291.947C49.3789 292.061 49.0566 292.117 48.7207 292.117C48.2402 292.117 47.8203 292.031 47.4609 291.859C47.1016 291.688 46.8008 291.457 46.5586 291.168C46.3203 290.875 46.1406 290.539 46.0195 290.16C45.8984 289.777 45.8379 289.375 45.8379 288.953L45.8379 288.707C45.8379 288.289 45.8984 287.889 46.0195 287.506C46.1406 287.123 46.3203 286.787 46.5586 286.498C46.8008 286.205 47.1016 285.973 47.4609 285.801C47.8203 285.629 48.2402 285.543 48.7207 285.543C49.0957 285.543 49.4395 285.604 49.752 285.725C50.0684 285.842 50.3398 286.004 50.5664 286.211C50.7969 286.414 50.9766 286.656 51.1055 286.938C51.2344 287.219 51.2988 287.52 51.2988 287.84L50.2734 287.84C50.2695 287.648 50.2266 287.469 50.1445 287.301C50.0664 287.129 49.959 286.979 49.8223 286.85C49.6855 286.721 49.5215 286.619 49.3301 286.545C49.1426 286.471 48.9395 286.434 48.7207 286.434C48.3848 286.434 48.1016 286.502 47.8711 286.639C47.6445 286.771 47.4609 286.947 47.3203 287.166C47.1797 287.381 47.0781 287.623 47.0156 287.893C46.957 288.162 46.9277 288.434 46.9277 288.707L46.9277 288.953C46.9277 289.23 46.957 289.506 47.0156 289.779C47.0781 290.049 47.1777 290.293 47.3145 290.512C47.4551 290.727 47.6387 290.902 47.8652 291.039C48.0957 291.172 48.3809 291.238 48.7207 291.238ZM57.3926 292C57.3496 291.918 57.3145 291.816 57.2871 291.695C57.2637 291.57 57.2461 291.441 57.2344 291.309C57.125 291.418 57.002 291.521 56.8652 291.619C56.7324 291.717 56.584 291.803 56.4199 291.877C56.2598 291.951 56.0879 292.01 55.9043 292.053C55.7207 292.096 55.5254 292.117 55.3184 292.117C54.9824 292.117 54.6777 292.068 54.4043 291.971C54.1348 291.873 53.9043 291.742 53.7129 291.578C53.5254 291.41 53.3789 291.213 53.2734 290.986C53.1719 290.756 53.1211 290.508 53.1211 290.242C53.1211 289.895 53.1895 289.59 53.3262 289.328C53.4668 289.066 53.6641 288.85 53.918 288.678C54.1719 288.502 54.4766 288.371 54.832 288.285C55.1914 288.199 55.5918 288.156 56.0332 288.156L57.2168 288.156L57.2168 287.658C57.2168 287.467 57.1816 287.295 57.1113 287.143C57.041 286.99 56.9414 286.861 56.8125 286.756C56.6836 286.646 56.5254 286.563 56.3379 286.504C56.1543 286.445 55.9473 286.416 55.7168 286.416C55.502 286.416 55.3086 286.443 55.1367 286.498C54.9687 286.553 54.8262 286.625 54.709 286.715C54.5918 286.805 54.5 286.912 54.4336 287.037C54.3711 287.158 54.3398 287.285 54.3398 287.418L53.25 287.418C53.2539 287.188 53.3125 286.961 53.4258 286.738C53.543 286.516 53.709 286.316 53.9238 286.141C54.1426 285.961 54.4062 285.816 54.7148 285.707C55.0273 285.598 55.3809 285.543 55.7754 285.543C56.1348 285.543 56.4687 285.588 56.7773 285.678C57.0859 285.764 57.3516 285.896 57.5742 286.076C57.8008 286.252 57.9785 286.473 58.1074 286.738C58.2363 287.004 58.3008 287.314 58.3008 287.67L58.3008 290.617C58.3008 290.828 58.3203 291.053 58.3594 291.291C58.3984 291.525 58.4531 291.73 58.5234 291.906L58.5234 292L57.3926 292ZM55.4766 291.174C55.6875 291.174 55.8848 291.146 56.0684 291.092C56.252 291.037 56.418 290.965 56.5664 290.875C56.7187 290.785 56.8496 290.684 56.959 290.57C57.0684 290.453 57.1543 290.332 57.2168 290.207L57.2168 288.924L56.209 288.924C55.5762 288.924 55.084 289.018 54.7324 289.205C54.3809 289.393 54.2051 289.688 54.2051 290.09C54.2051 290.246 54.2305 290.391 54.2812 290.523C54.3359 290.656 54.416 290.771 54.5215 290.869C54.627 290.963 54.7598 291.037 54.9199 291.092C55.0801 291.146 55.2656 291.174 55.4766 291.174ZM61.4062 285.66L61.4824 286.598C61.7129 286.27 61.9961 286.014 62.332 285.83C62.668 285.643 63.043 285.547 63.457 285.543C63.7891 285.543 64.0898 285.59 64.3594 285.684C64.6328 285.777 64.8652 285.924 65.0566 286.123C65.248 286.322 65.3945 286.576 65.4961 286.885C65.6016 287.189 65.6543 287.553 65.6543 287.975L65.6543 292L64.5703 292L64.5703 287.998C64.5703 287.717 64.5391 287.479 64.4766 287.283C64.4141 287.088 64.3203 286.93 64.1953 286.809C64.0742 286.688 63.9238 286.6 63.7441 286.545C63.5684 286.49 63.3652 286.463 63.1348 286.463C62.7715 286.463 62.4512 286.555 62.1738 286.738C61.9004 286.918 61.6816 287.156 61.5176 287.453L61.5176 292L60.4336 292L60.4336 285.66L61.4062 285.66ZM70.3418 291.238C70.5371 291.238 70.7266 291.207 70.9102 291.145C71.0977 291.082 71.2637 290.996 71.4082 290.887C71.5527 290.773 71.668 290.643 71.7539 290.494C71.8437 290.342 71.8906 290.178 71.8945 290.002L72.9199 290.002C72.916 290.283 72.8418 290.553 72.6973 290.811C72.5566 291.064 72.3672 291.289 72.1289 291.484C71.8906 291.676 71.6172 291.83 71.3086 291.947C71 292.061 70.6777 292.117 70.3418 292.117C69.8613 292.117 69.4414 292.031 69.082 291.859C68.7227 291.688 68.4219 291.457 68.1797 291.168C67.9414 290.875 67.7617 290.539 67.6406 290.16C67.5195 289.777 67.459 289.375 67.459 288.953L67.459 288.707C67.459 288.289 67.5195 287.889 67.6406 287.506C67.7617 287.123 67.9414 286.787 68.1797 286.498C68.4219 286.205 68.7227 285.973 69.082 285.801C69.4414 285.629 69.8613 285.543 70.3418 285.543C70.7168 285.543 71.0605 285.604 71.373 285.725C71.6895 285.842 71.9609 286.004 72.1875 286.211C72.418 286.414 72.5977 286.656 72.7266 286.938C72.8555 287.219 72.9199 287.52 72.9199 287.84L71.8945 287.84C71.8906 287.648 71.8477 287.469 71.7656 287.301C71.6875 287.129 71.5801 286.979 71.4434 286.85C71.3066 286.721 71.1426 286.619 70.9512 286.545C70.7637 286.471 70.5605 286.434 70.3418 286.434C70.0059 286.434 69.7227 286.502 69.4922 286.639C69.2656 286.771 69.082 286.947 68.9414 287.166C68.8008 287.381 68.6992 287.623 68.6367 287.893C68.5781 288.162 68.5488 288.434 68.5488 288.707L68.5488 288.953C68.5488 289.23 68.5781 289.506 68.6367 289.779C68.6992 290.049 68.7988 290.293 68.9355 290.512C69.0762 290.727 69.2598 290.902 69.4863 291.039C69.7168 291.172 70.002 291.238 70.3418 291.238ZM77.6484 292.117C77.2031 292.117 76.793 292.041 76.418 291.889C76.0469 291.736 75.7285 291.523 75.4629 291.25C75.1973 290.977 74.9902 290.652 74.8418 290.277C74.6934 289.902 74.6191 289.494 74.6191 289.053L74.6191 288.807C74.6191 288.295 74.7012 287.838 74.8652 287.436C75.0293 287.029 75.2461 286.688 75.5156 286.41C75.7891 286.129 76.0977 285.914 76.4414 285.766C76.7891 285.617 77.1445 285.543 77.5078 285.543C77.9648 285.543 78.3633 285.623 78.7031 285.783C79.0469 285.939 79.332 286.158 79.5586 286.439C79.7852 286.717 79.9531 287.045 80.0625 287.424C80.1758 287.803 80.2324 288.213 80.2324 288.654L80.2324 289.141L75.7031 289.141C75.7148 289.43 75.7695 289.701 75.8672 289.955C75.9687 290.209 76.1055 290.432 76.2773 290.623C76.4531 290.811 76.6621 290.959 76.9043 291.068C77.1465 291.178 77.4141 291.232 77.707 291.232C78.0937 291.232 78.4375 291.154 78.7383 290.998C79.0391 290.842 79.2891 290.635 79.4883 290.377L80.1504 290.893C80.0449 291.053 79.9121 291.207 79.752 291.355C79.5957 291.5 79.4141 291.629 79.207 291.742C79 291.855 78.7656 291.945 78.5039 292.012C78.2422 292.082 77.957 292.117 77.6484 292.117ZM77.5078 286.434C77.2891 286.434 77.082 286.475 76.8867 286.557C76.6914 286.635 76.5156 286.752 76.3594 286.908C76.2031 287.061 76.0703 287.25 75.9609 287.477C75.8555 287.699 75.7812 287.957 75.7383 288.25L79.1484 288.25L79.1484 288.168C79.1367 287.957 79.0957 287.748 79.0254 287.541C78.959 287.334 78.8594 287.148 78.7266 286.984C78.5937 286.82 78.4258 286.688 78.2227 286.586C78.0234 286.484 77.7852 286.434 77.5078 286.434ZM82.2246 283L85.4648 283L85.4648 291.063L87.5332 291.063L87.5332 292L82.2246 292L82.2246 291.063L84.3809 291.063L84.3809 283.943L82.2246 283.943L82.2246 283Z" fill="#00C2FF"/>
<path d="M133 195.5H246M246 195.5L234.5 184M246 195.5L234.5 207" stroke="#00C2FF" stroke-width="3"/>
<path d="M133 195.5H246M246 195.5L234.5 184M246 195.5L234.5 207" stroke="#00C2FF" stroke-width="3"/>
<path d="M134.721 219.238C134.916 219.238 135.105 219.207 135.289 219.145C135.477 219.082 135.643 218.996 135.787 218.887C135.932 218.773 136.047 218.643 136.133 218.494C136.223 218.342 136.27 218.178 136.273 218.002H137.299C137.295 218.283 137.221 218.553 137.076 218.811C136.936 219.064 136.746 219.289 136.508 219.484C136.27 219.676 135.996 219.83 135.688 219.947C135.379 220.061 135.057 220.117 134.721 220.117C134.24 220.117 133.82 220.031 133.461 219.859C133.102 219.688 132.801 219.457 132.559 219.168C132.32 218.875 132.141 218.539 132.02 218.16C131.898 217.777 131.838 217.375 131.838 216.953V216.707C131.838 216.289 131.898 215.889 132.02 215.506C132.141 215.123 132.32 214.787 132.559 214.498C132.801 214.205 133.102 213.973 133.461 213.801C133.82 213.629 134.24 213.543 134.721 213.543C135.096 213.543 135.439 213.604 135.752 213.725C136.068 213.842 136.34 214.004 136.566 214.211C136.797 214.414 136.977 214.656 137.105 214.938C137.234 215.219 137.299 215.52 137.299 215.84H136.273C136.27 215.648 136.227 215.469 136.145 215.301C136.066 215.129 135.959 214.979 135.822 214.85C135.686 214.721 135.521 214.619 135.33 214.545C135.143 214.471 134.939 214.434 134.721 214.434C134.385 214.434 134.102 214.502 133.871 214.639C133.645 214.771 133.461 214.947 133.32 215.166C133.18 215.381 133.078 215.623 133.016 215.893C132.957 216.162 132.928 216.434 132.928 216.707V216.953C132.928 217.23 132.957 217.506 133.016 217.779C133.078 218.049 133.178 218.293 133.314 218.512C133.455 218.727 133.639 218.902 133.865 219.039C134.096 219.172 134.381 219.238 134.721 219.238ZM138.922 216.771C138.922 216.314 138.988 215.891 139.121 215.5C139.254 215.105 139.443 214.764 139.689 214.475C139.939 214.186 140.242 213.959 140.598 213.795C140.953 213.627 141.354 213.543 141.799 213.543C142.248 213.543 142.65 213.627 143.006 213.795C143.365 213.959 143.668 214.186 143.914 214.475C144.164 214.764 144.355 215.105 144.488 215.5C144.621 215.891 144.688 216.314 144.688 216.771V216.9C144.688 217.357 144.621 217.781 144.488 218.172C144.355 218.562 144.164 218.902 143.914 219.191C143.668 219.48 143.367 219.707 143.012 219.871C142.656 220.035 142.256 220.117 141.811 220.117C141.361 220.117 140.957 220.035 140.598 219.871C140.242 219.707 139.939 219.48 139.689 219.191C139.443 218.902 139.254 218.562 139.121 218.172C138.988 217.781 138.922 217.357 138.922 216.9V216.771ZM140.006 216.9C140.006 217.213 140.043 217.512 140.117 217.797C140.191 218.078 140.303 218.326 140.451 218.541C140.604 218.756 140.793 218.926 141.02 219.051C141.246 219.176 141.51 219.238 141.811 219.238C142.107 219.238 142.367 219.176 142.59 219.051C142.816 218.926 143.004 218.756 143.152 218.541C143.305 218.326 143.418 218.078 143.492 217.797C143.566 217.512 143.604 217.213 143.604 216.9V216.771C143.604 216.463 143.564 216.168 143.486 215.887C143.412 215.602 143.299 215.352 143.146 215.137C142.998 214.922 142.811 214.752 142.584 214.627C142.361 214.498 142.1 214.434 141.799 214.434C141.498 214.434 141.236 214.498 141.014 214.627C140.791 214.752 140.604 214.922 140.451 215.137C140.303 215.352 140.191 215.602 140.117 215.887C140.043 216.168 140.006 216.463 140.006 216.771V216.9ZM147.406 213.66L147.482 214.598C147.713 214.27 147.996 214.014 148.332 213.83C148.668 213.643 149.043 213.547 149.457 213.543C149.789 213.543 150.09 213.59 150.359 213.684C150.633 213.777 150.865 213.924 151.057 214.123C151.248 214.322 151.395 214.576 151.496 214.885C151.602 215.189 151.654 215.553 151.654 215.975V220H150.57V215.998C150.57 215.717 150.539 215.479 150.477 215.283C150.414 215.088 150.32 214.93 150.195 214.809C150.074 214.688 149.924 214.6 149.744 214.545C149.568 214.49 149.365 214.463 149.135 214.463C148.771 214.463 148.451 214.555 148.174 214.738C147.9 214.918 147.682 215.156 147.518 215.453V220H146.434V213.66H147.406ZM155.258 220V214.498H153.512V213.66H155.258V213.215C155.258 212.809 155.316 212.453 155.434 212.148C155.555 211.84 155.723 211.582 155.938 211.375C156.156 211.168 156.418 211.012 156.723 210.906C157.027 210.801 157.367 210.748 157.742 210.748C158 210.748 158.25 210.77 158.492 210.812C158.738 210.855 158.99 210.91 159.248 210.977L159.119 211.873C158.959 211.818 158.771 211.771 158.557 211.732C158.346 211.689 158.119 211.668 157.877 211.668C157.369 211.672 156.986 211.801 156.729 212.055C156.475 212.309 156.348 212.695 156.348 213.215V213.66H158.791V214.498H156.348V220H155.258ZM161.018 213.66H164.258V219.062H166.326V220H161.018V219.062H163.174V214.604H161.018V213.66ZM163.033 211.996C163.033 211.816 163.086 211.666 163.191 211.545C163.301 211.42 163.465 211.357 163.684 211.357C163.898 211.357 164.061 211.42 164.17 211.545C164.279 211.666 164.334 211.816 164.334 211.996C164.334 212.172 164.279 212.318 164.17 212.436C164.061 212.553 163.898 212.611 163.684 212.611C163.465 212.611 163.301 212.553 163.191 212.436C163.086 212.318 163.033 212.172 163.033 211.996ZM172.209 213.543C172.311 213.543 172.416 213.547 172.525 213.555C172.635 213.559 172.738 213.568 172.836 213.584C172.938 213.596 173.029 213.611 173.111 213.631C173.197 213.65 173.268 213.672 173.322 213.695L173.176 214.756C172.965 214.709 172.764 214.676 172.572 214.656C172.385 214.633 172.188 214.621 171.98 214.621C171.473 214.621 171.061 214.736 170.744 214.967C170.432 215.197 170.201 215.52 170.053 215.934V220H168.963V213.66H169.994L170.047 214.668C170.305 214.32 170.613 214.047 170.973 213.848C171.336 213.645 171.748 213.543 172.209 213.543ZM175.76 213.66L175.789 214.258C175.918 214.035 176.086 213.861 176.293 213.736C176.504 213.611 176.758 213.547 177.055 213.543C177.637 213.543 178.025 213.77 178.221 214.223C178.346 214.02 178.51 213.857 178.713 213.736C178.92 213.611 179.17 213.547 179.463 213.543C179.928 213.543 180.285 213.686 180.535 213.971C180.785 214.256 180.91 214.688 180.91 215.266V220H179.879V215.254C179.879 214.723 179.635 214.459 179.146 214.463C179.018 214.463 178.906 214.48 178.812 214.516C178.719 214.551 178.641 214.6 178.578 214.662C178.516 214.721 178.467 214.791 178.432 214.873C178.396 214.951 178.373 215.033 178.361 215.119V220H177.33V215.248C177.33 214.994 177.273 214.799 177.16 214.662C177.047 214.525 176.867 214.459 176.621 214.463C176.395 214.463 176.219 214.508 176.094 214.598C175.969 214.688 175.877 214.807 175.818 214.955V220H174.787V213.66H175.76ZM187.73 220.885H182.357V220H187.73V220.885ZM189.471 216.777C189.471 216.305 189.529 215.871 189.646 215.477C189.768 215.078 189.938 214.736 190.156 214.451C190.379 214.166 190.646 213.943 190.959 213.783C191.271 213.623 191.621 213.543 192.008 213.543C192.387 213.543 192.717 213.607 192.998 213.736C193.283 213.861 193.529 214.045 193.736 214.287V211H194.82V220H193.824L193.777 219.332C193.566 219.59 193.314 219.785 193.021 219.918C192.729 220.051 192.387 220.117 191.996 220.117C191.613 220.117 191.266 220.035 190.953 219.871C190.645 219.707 190.381 219.48 190.162 219.191C189.943 218.902 189.773 218.562 189.652 218.172C189.531 217.777 189.471 217.354 189.471 216.9V216.777ZM190.555 216.9C190.555 217.209 190.588 217.502 190.654 217.779C190.721 218.057 190.822 218.301 190.959 218.512C191.1 218.723 191.277 218.891 191.492 219.016C191.707 219.137 191.965 219.197 192.266 219.197C192.449 219.197 192.615 219.176 192.764 219.133C192.912 219.09 193.047 219.029 193.168 218.951C193.289 218.869 193.396 218.773 193.49 218.664C193.584 218.551 193.666 218.426 193.736 218.289V215.348C193.596 215.09 193.406 214.879 193.168 214.715C192.93 214.547 192.633 214.463 192.277 214.463C191.973 214.463 191.711 214.525 191.492 214.65C191.277 214.775 191.1 214.945 190.959 215.16C190.822 215.371 190.721 215.617 190.654 215.898C190.588 216.176 190.555 216.469 190.555 216.777V216.9ZM199.684 220.117C199.238 220.117 198.828 220.041 198.453 219.889C198.082 219.736 197.764 219.523 197.498 219.25C197.232 218.977 197.025 218.652 196.877 218.277C196.729 217.902 196.654 217.494 196.654 217.053V216.807C196.654 216.295 196.736 215.838 196.9 215.436C197.064 215.029 197.281 214.688 197.551 214.41C197.824 214.129 198.133 213.914 198.477 213.766C198.824 213.617 199.18 213.543 199.543 213.543C200 213.543 200.398 213.623 200.738 213.783C201.082 213.939 201.367 214.158 201.594 214.439C201.82 214.717 201.988 215.045 202.098 215.424C202.211 215.803 202.268 216.213 202.268 216.654V217.141H197.738C197.75 217.43 197.805 217.701 197.902 217.955C198.004 218.209 198.141 218.432 198.312 218.623C198.488 218.811 198.697 218.959 198.939 219.068C199.182 219.178 199.449 219.232 199.742 219.232C200.129 219.232 200.473 219.154 200.773 218.998C201.074 218.842 201.324 218.635 201.523 218.377L202.186 218.893C202.08 219.053 201.947 219.207 201.787 219.355C201.631 219.5 201.449 219.629 201.242 219.742C201.035 219.855 200.801 219.945 200.539 220.012C200.277 220.082 199.992 220.117 199.684 220.117ZM199.543 214.434C199.324 214.434 199.117 214.475 198.922 214.557C198.727 214.635 198.551 214.752 198.395 214.908C198.238 215.061 198.105 215.25 197.996 215.477C197.891 215.699 197.816 215.957 197.773 216.25H201.184V216.168C201.172 215.957 201.131 215.748 201.061 215.541C200.994 215.334 200.895 215.148 200.762 214.984C200.629 214.82 200.461 214.688 200.258 214.586C200.059 214.484 199.82 214.434 199.543 214.434ZM204.26 211H207.5V219.062H209.568V220H204.26V219.062H206.416V211.943H204.26V211ZM211.467 213.66H214.707V219.062H216.775V220H211.467V219.062H213.623V214.604H211.467V213.66ZM213.482 211.996C213.482 211.816 213.535 211.666 213.641 211.545C213.75 211.42 213.914 211.357 214.133 211.357C214.348 211.357 214.51 211.42 214.619 211.545C214.729 211.666 214.783 211.816 214.783 211.996C214.783 212.172 214.729 212.318 214.619 212.436C214.51 212.553 214.348 212.611 214.133 212.611C213.914 212.611 213.75 212.553 213.641 212.436C213.535 212.318 213.482 212.172 213.482 211.996ZM220.988 218.441L221.088 218.834L221.193 218.441L222.969 213.66H224.076L221.492 220H220.666L218.059 213.66H219.172L220.988 218.441ZM228.512 220.117C228.066 220.117 227.656 220.041 227.281 219.889C226.91 219.736 226.592 219.523 226.326 219.25C226.061 218.977 225.854 218.652 225.705 218.277C225.557 217.902 225.482 217.494 225.482 217.053V216.807C225.482 216.295 225.564 215.838 225.729 215.436C225.893 215.029 226.109 214.688 226.379 214.41C226.652 214.129 226.961 213.914 227.305 213.766C227.652 213.617 228.008 213.543 228.371 213.543C228.828 213.543 229.227 213.623 229.566 213.783C229.91 213.939 230.195 214.158 230.422 214.439C230.648 214.717 230.816 215.045 230.926 215.424C231.039 215.803 231.096 216.213 231.096 216.654V217.141H226.566C226.578 217.43 226.633 217.701 226.73 217.955C226.832 218.209 226.969 218.432 227.141 218.623C227.316 218.811 227.525 218.959 227.768 219.068C228.01 219.178 228.277 219.232 228.57 219.232C228.957 219.232 229.301 219.154 229.602 218.998C229.902 218.842 230.152 218.635 230.352 218.377L231.014 218.893C230.908 219.053 230.775 219.207 230.615 219.355C230.459 219.5 230.277 219.629 230.07 219.742C229.863 219.855 229.629 219.945 229.367 220.012C229.105 220.082 228.82 220.117 228.512 220.117ZM228.371 214.434C228.152 214.434 227.945 214.475 227.75 214.557C227.555 214.635 227.379 214.752 227.223 214.908C227.066 215.061 226.934 215.25 226.824 215.477C226.719 215.699 226.645 215.957 226.602 216.25H230.012V216.168C230 215.957 229.959 215.748 229.889 215.541C229.822 215.334 229.723 215.148 229.59 214.984C229.457 214.82 229.289 214.688 229.086 214.586C228.887 214.484 228.648 214.434 228.371 214.434ZM237.072 213.543C237.174 213.543 237.279 213.547 237.389 213.555C237.498 213.559 237.602 213.568 237.699 213.584C237.801 213.596 237.893 213.611 237.975 213.631C238.061 213.65 238.131 213.672 238.186 213.695L238.039 214.756C237.828 214.709 237.627 214.676 237.436 214.656C237.248 214.633 237.051 214.621 236.844 214.621C236.336 214.621 235.924 214.736 235.607 214.967C235.295 215.197 235.064 215.52 234.916 215.934V220H233.826V213.66H234.857L234.91 214.668C235.168 214.32 235.477 214.047 235.836 213.848C236.199 213.645 236.611 213.543 237.072 213.543ZM242.457 217.75L242.738 218.518L244.672 213.66H245.885L242.668 220.979C242.594 221.143 242.498 221.316 242.381 221.5C242.268 221.684 242.129 221.854 241.965 222.01C241.801 222.166 241.609 222.297 241.391 222.402C241.172 222.508 240.92 222.561 240.635 222.561C240.584 222.561 240.527 222.557 240.465 222.549C240.402 222.545 240.34 222.537 240.277 222.525C240.215 222.518 240.156 222.508 240.102 222.496C240.047 222.484 240.002 222.475 239.967 222.467L240.143 221.582C240.17 221.582 240.207 221.584 240.254 221.588C240.301 221.592 240.35 221.596 240.4 221.6C240.451 221.604 240.5 221.605 240.547 221.605C240.594 221.609 240.631 221.611 240.658 221.611C240.807 221.611 240.941 221.57 241.062 221.488C241.188 221.406 241.297 221.309 241.391 221.195C241.488 221.082 241.57 220.965 241.637 220.844C241.707 220.723 241.762 220.623 241.801 220.545L242.234 219.701L239.504 213.66H240.717L242.457 217.75Z" fill="#00C2FF"/>
<path d="M164.814 127.777C164.814 127.305 164.873 126.871 164.99 126.477C165.111 126.078 165.281 125.736 165.5 125.451C165.723 125.166 165.99 124.943 166.303 124.783C166.615 124.623 166.965 124.543 167.352 124.543C167.73 124.543 168.061 124.607 168.342 124.736C168.627 124.861 168.873 125.045 169.08 125.287V122H170.164V131H169.168L169.121 130.332C168.91 130.59 168.658 130.785 168.365 130.918C168.072 131.051 167.73 131.117 167.34 131.117C166.957 131.117 166.609 131.035 166.297 130.871C165.988 130.707 165.725 130.48 165.506 130.191C165.287 129.902 165.117 129.562 164.996 129.172C164.875 128.777 164.814 128.354 164.814 127.9V127.777ZM165.898 127.9C165.898 128.209 165.932 128.502 165.998 128.779C166.064 129.057 166.166 129.301 166.303 129.512C166.443 129.723 166.621 129.891 166.836 130.016C167.051 130.137 167.309 130.197 167.609 130.197C167.793 130.197 167.959 130.176 168.107 130.133C168.256 130.09 168.391 130.029 168.512 129.951C168.633 129.869 168.74 129.773 168.834 129.664C168.928 129.551 169.01 129.426 169.08 129.289V126.348C168.939 126.09 168.75 125.879 168.512 125.715C168.273 125.547 167.977 125.463 167.621 125.463C167.316 125.463 167.055 125.525 166.836 125.65C166.621 125.775 166.443 125.945 166.303 126.16C166.166 126.371 166.064 126.617 165.998 126.898C165.932 127.176 165.898 127.469 165.898 127.777V127.9ZM175.027 131.117C174.582 131.117 174.172 131.041 173.797 130.889C173.426 130.736 173.107 130.523 172.842 130.25C172.576 129.977 172.369 129.652 172.221 129.277C172.072 128.902 171.998 128.494 171.998 128.053V127.807C171.998 127.295 172.08 126.838 172.244 126.436C172.408 126.029 172.625 125.688 172.895 125.41C173.168 125.129 173.477 124.914 173.82 124.766C174.168 124.617 174.523 124.543 174.887 124.543C175.344 124.543 175.742 124.623 176.082 124.783C176.426 124.939 176.711 125.158 176.938 125.439C177.164 125.717 177.332 126.045 177.441 126.424C177.555 126.803 177.611 127.213 177.611 127.654V128.141H173.082C173.094 128.43 173.148 128.701 173.246 128.955C173.348 129.209 173.484 129.432 173.656 129.623C173.832 129.811 174.041 129.959 174.283 130.068C174.525 130.178 174.793 130.232 175.086 130.232C175.473 130.232 175.816 130.154 176.117 129.998C176.418 129.842 176.668 129.635 176.867 129.377L177.529 129.893C177.424 130.053 177.291 130.207 177.131 130.355C176.975 130.5 176.793 130.629 176.586 130.742C176.379 130.855 176.145 130.945 175.883 131.012C175.621 131.082 175.336 131.117 175.027 131.117ZM174.887 125.434C174.668 125.434 174.461 125.475 174.266 125.557C174.07 125.635 173.895 125.752 173.738 125.908C173.582 126.061 173.449 126.25 173.34 126.477C173.234 126.699 173.16 126.957 173.117 127.25H176.527V127.168C176.516 126.957 176.475 126.748 176.404 126.541C176.338 126.334 176.238 126.148 176.105 125.984C175.973 125.82 175.805 125.688 175.602 125.586C175.402 125.484 175.164 125.434 174.887 125.434ZM179.604 122H182.844V130.062H184.912V131H179.604V130.062H181.76V122.943H179.604V122ZM186.811 124.66H190.051V130.062H192.119V131H186.811V130.062H188.967V125.604H186.811V124.66ZM188.826 122.996C188.826 122.816 188.879 122.666 188.984 122.545C189.094 122.42 189.258 122.357 189.477 122.357C189.691 122.357 189.854 122.42 189.963 122.545C190.072 122.666 190.127 122.816 190.127 122.996C190.127 123.172 190.072 123.318 189.963 123.436C189.854 123.553 189.691 123.611 189.477 123.611C189.258 123.611 189.094 123.553 188.984 123.436C188.879 123.318 188.826 123.172 188.826 122.996ZM196.332 129.441L196.432 129.834L196.537 129.441L198.312 124.66H199.42L196.836 131H196.01L193.402 124.66H194.516L196.332 129.441ZM203.855 131.117C203.41 131.117 203 131.041 202.625 130.889C202.254 130.736 201.936 130.523 201.67 130.25C201.404 129.977 201.197 129.652 201.049 129.277C200.9 128.902 200.826 128.494 200.826 128.053V127.807C200.826 127.295 200.908 126.838 201.072 126.436C201.236 126.029 201.453 125.688 201.723 125.41C201.996 125.129 202.305 124.914 202.648 124.766C202.996 124.617 203.352 124.543 203.715 124.543C204.172 124.543 204.57 124.623 204.91 124.783C205.254 124.939 205.539 125.158 205.766 125.439C205.992 125.717 206.16 126.045 206.27 126.424C206.383 126.803 206.439 127.213 206.439 127.654V128.141H201.91C201.922 128.43 201.977 128.701 202.074 128.955C202.176 129.209 202.312 129.432 202.484 129.623C202.66 129.811 202.869 129.959 203.111 130.068C203.354 130.178 203.621 130.232 203.914 130.232C204.301 130.232 204.645 130.154 204.945 129.998C205.246 129.842 205.496 129.635 205.695 129.377L206.357 129.893C206.252 130.053 206.119 130.207 205.959 130.355C205.803 130.5 205.621 130.629 205.414 130.742C205.207 130.855 204.973 130.945 204.711 131.012C204.449 131.082 204.164 131.117 203.855 131.117ZM203.715 125.434C203.496 125.434 203.289 125.475 203.094 125.557C202.898 125.635 202.723 125.752 202.566 125.908C202.41 126.061 202.277 126.25 202.168 126.477C202.062 126.699 201.988 126.957 201.945 127.25H205.355V127.168C205.344 126.957 205.303 126.748 205.232 126.541C205.166 126.334 205.066 126.148 204.934 125.984C204.801 125.82 204.633 125.688 204.43 125.586C204.23 125.484 203.992 125.434 203.715 125.434ZM212.416 124.543C212.518 124.543 212.623 124.547 212.732 124.555C212.842 124.559 212.945 124.568 213.043 124.584C213.145 124.596 213.236 124.611 213.318 124.631C213.404 124.65 213.475 124.672 213.529 124.695L213.383 125.756C213.172 125.709 212.971 125.676 212.779 125.656C212.592 125.633 212.395 125.621 212.188 125.621C211.68 125.621 211.268 125.736 210.951 125.967C210.639 126.197 210.408 126.52 210.26 126.934V131H209.17V124.66H210.201L210.254 125.668C210.512 125.32 210.82 125.047 211.18 124.848C211.543 124.645 211.955 124.543 212.416 124.543Z" fill="#FF0000"/>
<path d="M321 68.5V110.5H60.5V150.5M60.5 150.5L48 138M60.5 150.5L73 138" stroke="#FF0000" stroke-width="3"/>
</svg>
